<svg id="Capa_1" data-name="Capa 1" xmlns="http://www.w3.org/2000/svg" viewBox="0 0 113.86 96.83"><defs><style>.cls-1{fill:#fdfdfd;}.cls-2{fill:#fff;}</style></defs><title>Sin título-1</title><rect class="cls-1" x="19.68" y="2.54" width="2.22" height="90.53"/><polygon class="cls-1" points="17.03 6.96 20.79 3.19 24.55 6.96 24.55 3.76 20.79 0 17.03 3.76 17.03 6.96"/><rect class="cls-1" x="20.79" y="91.96" width="90.53" height="2.22"/><polygon class="cls-1" points="106.9 89.3 110.66 93.07 106.9 96.83 110.09 96.83 113.86 93.07 110.09 89.3 106.9 89.3"/><path class="cls-2" d="M12.81,78.84l-.79.64c0,.35,0,.77,0,1.2a4.36,4.36,0,0,1-1.44,3.23c-.52.48-1.05.94-1.61,1.37a.74.74,0,0,0-.25.73c0,.29-.07.57.23.81a17.63,17.63,0,0,1,1.61,1.37,5.19,5.19,0,0,1,1.32,2.39A6.43,6.43,0,0,1,12,92.32a.43.43,0,0,0,.28.46.81.81,0,0,1,.51.93.8.8,0,0,1-.74.72H1.13A.85.85,0,0,1,.26,94c-.15-.39,0-1,.37-1.14s.37-.34.37-.62,0-.59,0-.89a4.65,4.65,0,0,1,1.1-2.78c.23-.27.39-.58.77-.74s.48-.56.88-.69a.94.94,0,0,0,.53-.52,2.62,2.62,0,0,0,0-1,.41.41,0,0,0-.17-.23,6,6,0,0,0-1.38-1.16,6.27,6.27,0,0,1-1.6-2.58A7.42,7.42,0,0,1,1,79.82c0-.3,0-.3-.35-.6C.14,78.8.14,78.58.35,78c.14-.34.44-.35.68-.48.07,0,.2,0,.31,0H11.65a1.86,1.86,0,0,1,.52.07.82.82,0,0,1,.64.85Zm-10.24.51c0,.39,0,.76,0,1.13a3.52,3.52,0,0,0,.36,1.35,3.8,3.8,0,0,0,1.4,1.6,4.61,4.61,0,0,1,1.2,1.17A2.2,2.2,0,0,1,5.77,87,3.74,3.74,0,0,1,4.3,88.6a3.73,3.73,0,0,0-1.7,3.64l1.87-1.47c.44-.35.9-.68,1.37-1a1,1,0,0,1,1.34,0c.5.35,1,.73,1.48,1.1l1.75,1.35a3,3,0,0,0-.21-1.68,5.53,5.53,0,0,0-1.91-2.22,3.71,3.71,0,0,1-1.08-1.37c0-.16,0-.36-.08-.49a.83.83,0,0,1,0-.87,5.33,5.33,0,0,1,.33-.92A4.68,4.68,0,0,1,8.9,83.38a3.4,3.4,0,0,0,1.21-1.44,4.51,4.51,0,0,0,.29-2.59Z"/><path class="cls-2" d="M44.91,31c-.26-.35-.51-.72-.74-1.1a13,13,0,1,1,22.29-13.4c.24.4.46.82.66,1.24l-1.24.57c-.18-.37-.37-.75-.59-1.11A11.63,11.63,0,0,0,44,20.42a11.5,11.5,0,0,0,1.32,8.81c.2.34.43.67.66,1Z"/><path class="cls-2" d="M55.31,36.23a13,13,0,0,1-9.08-3.69l1-1A11.63,11.63,0,0,0,61.31,33.2,11.31,11.31,0,0,0,66.51,20l1.3-.4A12.65,12.65,0,0,1,62,34.37,13,13,0,0,1,55.31,36.23Z"/><path class="cls-2" d="M43.19,31.77a1.1,1.1,0,0,1-1-.5c-.55-.92.49-2,1.69-3.07l.9,1a8.15,8.15,0,0,0-1.14,1.15c1.56-.29,6.07-2.25,12.23-5.95s9.87-6.67,10.93-7.95a10.14,10.14,0,0,0-1.32.39L65,15.59c1.94-.7,2.89-.71,3.3,0s0,1.69-3.14,4.21a84.06,84.06,0,0,1-8.61,5.82,85.46,85.46,0,0,1-9.18,4.88A12.13,12.13,0,0,1,43.19,31.77Z"/><path class="cls-2" d="M41.75,34a2.51,2.51,0,0,1-2.35-1c-.84-1.38.46-3.65,3.85-6.72l.91,1c-3.13,2.85-3.87,4.56-3.59,5s1.55.68,5.18-.51a58.63,58.63,0,0,0,11.31-5.41c9.67-5.82,13.58-10.77,13-11.79-.22-.38-1.73-.71-5.8.72L63.77,14c4.11-1.44,6.61-1.49,7.42-.13,1.81,3-7,9.81-13.43,13.65a59.55,59.55,0,0,1-11.59,5.55A15.14,15.14,0,0,1,41.75,34Z"/><path class="cls-2" d="M91.73,68.81a13,13,0,1,1,13-13A13,13,0,0,1,91.73,68.81Zm0-24.39a11.41,11.41,0,1,0,11.41,11.41A11.42,11.42,0,0,0,91.73,44.42Z"/><path class="cls-2" d="M91.52,68.81a13,13,0,1,1,8-2.77l.08,0-1.23.76h0l-.35.22h0A13,13,0,0,1,91.52,68.81Zm-2.68-1.88a11.86,11.86,0,0,0,3.43.29,14.07,14.07,0,0,1-1.47-.15L90,67A8.84,8.84,0,0,0,88.84,66.93Zm2.68-22.51A11.41,11.41,0,0,0,86,65.79l.13-.05a11.57,11.57,0,0,1,4.06-.33l.88.11a9.31,9.31,0,0,0,1.72.13,9.68,9.68,0,0,0,1.59-.28,6.83,6.83,0,0,1,3-.23,3.56,3.56,0,0,1,.53.16,11.41,11.41,0,0,0-6.37-20.88Z"/><path class="cls-2" d="M91.71,68.81a13,13,0,1,1,13-13A12.79,12.79,0,0,1,102.55,63l0,0-.54.7h0l-.42.55h0A12.89,12.89,0,0,1,91.71,68.81ZM84,64.2a11.41,11.41,0,0,0,16.22-.72,15.06,15.06,0,0,0-5.41-.94,7.45,7.45,0,0,0-2.27.17,8.9,8.9,0,0,0-1.45.62,7.56,7.56,0,0,1-2.43.86,7.13,7.13,0,0,1-1.22,0h-.1C86.19,64.14,85.07,64.15,84,64.2Zm7.75-19.78a11.4,11.4,0,0,0-9,18.4,2.53,2.53,0,0,1,.83-.16,35.12,35.12,0,0,1,3.84,0h.1a5.23,5.23,0,0,0,1,0,6.18,6.18,0,0,0,1.91-.7,10,10,0,0,1,1.73-.73A9.19,9.19,0,0,1,94.82,61a16.07,16.07,0,0,1,6.36,1.24,11.41,11.41,0,0,0-9.47-17.79Z"/><path class="cls-2" d="M91.71,68.81a13,13,0,0,1-12.54-9.65l-.33-1.25,2.52.57a11.23,11.23,0,0,0,4.25.4,11.31,11.31,0,0,0,2-.6l.86-.31a15.32,15.32,0,0,1,6-.78,25.67,25.67,0,0,1,4,.67,31.85,31.85,0,0,1,5,1.56l.69.29-.27.71A13,13,0,0,1,91.71,68.81ZM81.1,60a11.41,11.41,0,0,0,21,.55,33.1,33.1,0,0,0-4-1.18,23.28,23.28,0,0,0-3.75-.64,14,14,0,0,0-5.36.7l-.81.3a13.48,13.48,0,0,1-2.26.68h0A12.34,12.34,0,0,1,81.1,60Z"/><path class="cls-2" d="M103.57,61.18l-.75-.32a30.07,30.07,0,0,0-4.77-1.47,23.28,23.28,0,0,0-3.75-.64,14,14,0,0,0-5.36.7l-.81.3a13.48,13.48,0,0,1-2.26.68A12.54,12.54,0,0,1,81,60l-1.73-.39-.12-.46a12.84,12.84,0,0,1-.43-3.33,13,13,0,0,1,26,0,12.83,12.83,0,0,1-.84,4.59Zm-10.18-4c.34,0,.68,0,1,0a25.67,25.67,0,0,1,4,.67h0a33.38,33.38,0,0,1,4.24,1.25,11.67,11.67,0,0,0,.48-3.28A11.42,11.42,0,1,0,80.57,58.3l.79.18a11.23,11.23,0,0,0,4.25.4,11.31,11.31,0,0,0,2-.6l.86-.31A15.39,15.39,0,0,1,93.39,57.15Z"/><path class="cls-2" d="M91.72,68.81a13,13,0,0,1-13-13,11.12,11.12,0,0,1,.06-1.16l0-.39.34-.21A6.75,6.75,0,0,1,82.92,53a10.07,10.07,0,0,1,2.84.65,11.8,11.8,0,0,0,2,.53h0a6.59,6.59,0,0,0,4-.86l.64-.37A9.56,9.56,0,0,1,94,52.08a8.71,8.71,0,0,1,5.29.22,48.39,48.39,0,0,1,4.85,1.62l.45.18,0,.48c0,.41.06.83.06,1.25A13,13,0,0,1,91.72,68.81ZM80.33,55.21c0,.21,0,.41,0,.62a11.41,11.41,0,1,0,22.82,0c0-.21,0-.42,0-.63-1.4-.53-2.82-1-4.24-1.39a7.41,7.41,0,0,0-4.34-.26,7.61,7.61,0,0,0-1.38.72l-.7.4a8.09,8.09,0,0,1-4.93,1h0a12.61,12.61,0,0,1-2.25-.6,9,9,0,0,0-2.4-.56A5,5,0,0,0,80.33,55.21Z"/><path class="cls-2" d="M78.66,56.22l.14-1.55a13,13,0,0,1,25.83-.1l.13,1.28-1.19-.47a46.26,46.26,0,0,0-4.7-1.57h0a7.41,7.41,0,0,0-4.34-.26,7.61,7.61,0,0,0-1.38.72l-.7.4a8.09,8.09,0,0,1-4.93,1,12.61,12.61,0,0,1-2.25-.6,9,9,0,0,0-2.4-.56,5.3,5.3,0,0,0-2.89.87ZM82.74,53h.18a10.07,10.07,0,0,1,2.84.65,11.8,11.8,0,0,0,2,.53,6.59,6.59,0,0,0,4-.86c.22-.11.43-.24.64-.37A9.56,9.56,0,0,1,94,52.08a8.71,8.71,0,0,1,5.29.22c1.2.33,2.4.71,3.59,1.14a11.42,11.42,0,0,0-22.31-.06A6.26,6.26,0,0,1,82.74,53Z"/><path class="cls-2" d="M91.73,68.81a13,13,0,0,1-9.19-22.14l.34-.34.46.15a7.52,7.52,0,0,0,3.27.17h0q.61-.07,1.23-.18a15.09,15.09,0,0,1,3.63-.26,15.51,15.51,0,0,1,2.68.53,9.45,9.45,0,0,0,3.34.48,9,9,0,0,0,2.25-.63l.8-.3.36.36a13,13,0,0,1-9.17,22.16Zm-8.4-20.7a11.41,11.41,0,1,0,16.8,0,9.91,9.91,0,0,1-2.48.67,10.83,10.83,0,0,1-3.9-.52,13.57,13.57,0,0,0-2.41-.49,14,14,0,0,0-3.25.25c-.43.07-.86.14-1.29.19A9.8,9.8,0,0,1,83.33,48.11Z"/><path class="cls-2" d="M97,48.81a13,13,0,0,1-3.24-.55,13.57,13.57,0,0,0-2.41-.49,14,14,0,0,0-3.25.25c-.43.07-.86.14-1.29.19a8.89,8.89,0,0,1-4-.24l-1.21-.4.9-.9a13,13,0,0,1,18.36,0l.86.86-1.48.55a10.74,10.74,0,0,1-2.63.72Zm-6.24-2.63q.36,0,.72,0a15.51,15.51,0,0,1,2.68.53,9.45,9.45,0,0,0,3.34.48,6,6,0,0,0,1.35-.31,11.39,11.39,0,0,0-14-.17,10.13,10.13,0,0,0,1.77-.09q.61-.07,1.23-.18A19.92,19.92,0,0,1,90.75,46.18Z"/><path class="cls-2" d="M103.72,72.48a3.19,3.19,0,1,1,3.18-3.19A3.19,3.19,0,0,1,103.72,72.48Zm0-4.81a1.62,1.62,0,1,0,1.62,1.62A1.63,1.63,0,0,0,103.72,67.67Z"/><path class="cls-2" d="M50,80.52A13.09,13.09,0,1,1,63,67.43,13.11,13.11,0,0,1,50,80.52Zm0-24.81A11.72,11.72,0,1,0,61.67,67.43,11.74,11.74,0,0,0,50,55.71Z"/><path class="cls-2" d="M58.54,77a1.8,1.8,0,0,1-1.41-1.51,3.65,3.65,0,0,1-.08-1,.79.79,0,0,0-.83-1.06,2.49,2.49,0,0,1-1.46-.86l-.14-.19v-.23a1.62,1.62,0,0,1,1-1.3c.68-.38,1.4-.82,1.49-1.4a2.5,2.5,0,0,0-.08-.74l-.47-2.43a2.89,2.89,0,0,1,1.34-3.36,5,5,0,0,0,.54-.48,3,3,0,0,0,.84-2h1.37a4.33,4.33,0,0,1-1.23,3,7.42,7.42,0,0,1-.65.58,2.51,2.51,0,0,0-.93,1.1,2.58,2.58,0,0,0,.07.94l.47,2.43a3.49,3.49,0,0,1,.08,1.19c-.18,1.28-1.42,2-2.13,2.38l.29.09a2.54,2.54,0,0,1,1.48.88,2.46,2.46,0,0,1,.33,1.53,2.41,2.41,0,0,0,0,.63c.13.49.2.5.28.51Z"/><path class="cls-2" d="M55,77.51a6.07,6.07,0,0,1-.68,0A6.45,6.45,0,0,1,52.69,77a.9.9,0,0,1-.45-.33,1,1,0,0,1-.15-.57,2.15,2.15,0,0,1,1.24-1.55,1.64,1.64,0,0,1,1.6-.06,2.89,2.89,0,0,1,1.56,1.86l0,.16,0,.15A1.38,1.38,0,0,1,55,77.51Zm-1.26-1.59a4.19,4.19,0,0,0,.74.18l.43,0a2.85,2.85,0,0,0-.62-.46h0A1.06,1.06,0,0,0,53.72,75.92Z"/><path class="cls-2" d="M49.06,74.06a1.73,1.73,0,0,1-1-.26,1.94,1.94,0,0,1-.78-1.33,1.81,1.81,0,0,1,.34-1.62,2,2,0,0,1,.84-.5,2.58,2.58,0,0,1,2-.1l.24.14.12.07.13.06a2.93,2.93,0,0,1,.79.83,3.71,3.71,0,0,0,.33.4,1.23,1.23,0,0,1,.48,1c0,.26-.2.88-1.21,1L49.61,74C49.46,74,49.27,74.06,49.06,74.06Zm.66-2.61a2.24,2.24,0,0,0-.75.19.93.93,0,0,0-.3.14s-.07.14,0,.43.16.43.18.44a1.18,1.18,0,0,0,.59,0l1.49-.19a3.24,3.24,0,0,1-.24-.31,1.91,1.91,0,0,0-.38-.44,2.52,2.52,0,0,1-.29-.16.41.41,0,0,0-.11-.07A.48.48,0,0,0,49.72,71.45Z"/><path class="cls-2" d="M41.7,71.15a2,2,0,0,1-.42,0,2.43,2.43,0,0,1-.87-.37c-1.12-.73-1.77-2.1-1.94-4.07,0-.27,0-.56-.06-.84A7.49,7.49,0,0,0,37.86,63l1.23-.61a8.57,8.57,0,0,1,.69,3.39c0,.28,0,.55,0,.81.14,1.53.58,2.55,1.33,3a1.12,1.12,0,0,0,.38.17,2.18,2.18,0,0,0,1-.17,5.91,5.91,0,0,1,2.65-.36,6.78,6.78,0,0,1,1,.25,2.16,2.16,0,0,0,1.35.15c.53-.21.73-1,.89-1.8a1.6,1.6,0,0,1,.32-.76,1.62,1.62,0,0,1,1.41-.46,23.3,23.3,0,0,1,3,.39,1.83,1.83,0,0,0,.55,0,.8.8,0,0,0-.26-.27A7.88,7.88,0,0,0,52.08,66c-.23-.1-.45-.2-.67-.32a4.55,4.55,0,0,1-2.13-1.89,2.45,2.45,0,0,1,.65-3.1A3.35,3.35,0,0,1,51,60.28l.1,0a2.73,2.73,0,0,0,1.71-1,1.87,1.87,0,0,0,.1-1.65,5.12,5.12,0,0,0-1.14-1.72l1-.92a6.7,6.7,0,0,1,1.42,2.18A3.32,3.32,0,0,1,54,60.06a4.1,4.1,0,0,1-2.52,1.53l-.1,0a2.71,2.71,0,0,0-.65.23,1.12,1.12,0,0,0-.19,1.34A3.2,3.2,0,0,0,52,64.47l.63.3a8.86,8.86,0,0,1,1.65.9,1.64,1.64,0,0,1,.74,2c-.23.46-.77,1-2.11.69A20.67,20.67,0,0,0,50.1,68a1.4,1.4,0,0,0-.31,0s0,.08,0,.12c-.16.8-.46,2.29-1.7,2.8a3.23,3.23,0,0,1-2.28-.11,6.08,6.08,0,0,0-.81-.21,4.88,4.88,0,0,0-2,.32A4.47,4.47,0,0,1,41.7,71.15Z"/><path class="cls-2" d="M49.48,80.46l0-1.37a.5.5,0,0,0,.1-.2,1.84,1.84,0,0,1,.08-.3s0-.11-.15-.4-1.12-.3-2-.22a7.63,7.63,0,0,1-2.19,0c-.29-.07-.47-.09-.58-.11-.56-.07-.83-.37-.8-.89a2,2,0,0,0,0-.22c-.09-1,.4-1.22,1.3-1.54h0l-.21-.1a19.26,19.26,0,0,1-6.53-1.59L39,72.24a17.87,17.87,0,0,0,6.05,1.47h0a2.13,2.13,0,0,1,1.21.58,1.23,1.23,0,0,1,.39.83,1.42,1.42,0,0,1-1,1.37l-.24.08.17,0a6.56,6.56,0,0,0,1.77,0c1.27-.11,2.71-.24,3.34,1A1.63,1.63,0,0,1,50.92,79l0,.13A1.57,1.57,0,0,1,49.48,80.46Z"/><rect class="cls-1" x="19.65" y="91.88" width="2.25" height="2.29"/><path class="cls-1" d="M.84,93.61c-.41-4.84,2-6.24,2.11-6.3.33-.23,1.12-1,1.11-1.56,0-.32-.25-.65-.75-1C.15,82.71.91,78.33.94,78.14l1.59.29s-.6,3.52,1.66,5a2.8,2.8,0,0,1,1.49,2.31c0,1.62-1.69,2.81-1.88,2.94s-1.67,1.07-1.35,4.79Z"/><path class="cls-1" d="M11.65,93.61l-1.6-.14c.32-3.75-1.27-4.74-1.29-4.75-.25-.17-1.95-1.36-1.94-3a2.8,2.8,0,0,1,1.49-2.32c2.25-1.47,1.67-5,1.66-5l1.59-.29c0,.19.78,4.57-2.37,6.63-.5.33-.76.66-.76,1,0,.6.79,1.33,1.17,1.6C9.64,87.37,12.07,88.77,11.65,93.61Z"/><rect class="cls-1" y="77.44" width="12.91" height="2.05" rx="1.02"/><rect class="cls-1" y="92.52" width="12.81" height="2.05" rx="1.02"/></svg>