<svg id="Capa_1" data-name="Capa 1" xmlns="http://www.w3.org/2000/svg" viewBox="0 0 90.96 94.11"><defs><style>.cls-1{fill:#fff;}</style></defs><title>Sin título-1</title><path class="cls-1" d="M61.16,6.58a1,1,0,0,1-.55-.16.94.94,0,0,1-.3-.3L60.18,6A1.44,1.44,0,0,1,60,5.7,1.24,1.24,0,0,1,60.3,4l.56.83a.24.24,0,0,0-.06.31l.11.13.13.14.06.08a.27.27,0,0,0,.07.08l.21,0,.94-.22.32.5-.14.49-.25.12-.07-.18,0,.13-.6.14A2.34,2.34,0,0,1,61.16,6.58Z"/><path class="cls-1" d="M56.59,19.15a8.15,8.15,0,1,1,8.15-8.32h0a8.16,8.16,0,0,1-8,8.32Zm0-15.3h-.15a7.15,7.15,0,1,0,7.3,7h0a7.15,7.15,0,0,0-7.15-7Z"/><path class="cls-1" d="M58.28,18.34a.72.72,0,0,1-.58-.28.89.89,0,0,1-.13-.7l.27-1.86a1.67,1.67,0,0,0,0-.87,2,2,0,0,0-.2-.31l-.15-.22a1.88,1.88,0,0,1-.35-1.2,1.41,1.41,0,0,1,.18-.57,21.27,21.27,0,0,0-2.12-1,3.28,3.28,0,0,1-.92-.45,3.43,3.43,0,0,1-.78-.95l-.2-.31a6.78,6.78,0,0,0-.67-.78,5.84,5.84,0,0,1-1.06-1.43c-.05-.1-.09-.2-.14-.31-.12-.3-.24-.59-.42-.66l.38-.93a1.9,1.9,0,0,1,1,1.21l.12.27a5.26,5.26,0,0,0,.89,1.17,7.4,7.4,0,0,1,.76.89c.08.11.15.23.22.35l0,0a1.19,1.19,0,0,1,.31-1,1.39,1.39,0,0,1,1.22-.31,2.09,2.09,0,0,1,.76.3c.11.06.3.18.36.16s.16-.28.19-.37c.34-.88.82-1.36,1.44-1.41h.42c.06,0,.1-.07.12-.1a.41.41,0,0,0,0-.34A1,1,0,0,0,58.41,6a3.71,3.71,0,0,0-1.11.14l-.21,0a1.55,1.55,0,0,1-.83,0,.9.9,0,0,1-.63-1,1.06,1.06,0,0,1,.21-.39,1.81,1.81,0,0,1,1.69-.5l.52.11a2.62,2.62,0,0,0,.72.11c.27,0,.52-.13.55-.28l1,.21a1.31,1.31,0,0,1-.78.91,1.65,1.65,0,0,1,.59.67A1.39,1.39,0,0,1,60,7.24a1.18,1.18,0,0,1-.86.62h-.45c-.21,0-.42.3-.6.78a1.48,1.48,0,0,1-.74.93,1.35,1.35,0,0,1-1.24-.21,1.25,1.25,0,0,0-.39-.17.76.76,0,0,0-.39,0,.66.66,0,0,0,0,.34.23.23,0,0,0,.12.19.41.41,0,0,0,.36,0,.61.61,0,0,1,.93.49,1.13,1.13,0,0,0,1,.69,5.54,5.54,0,0,0,1,0,6,6,0,0,1,.85,0,2.3,2.3,0,0,1,2,1.1,1,1,0,0,1,.09.24v0l.4.16a1.14,1.14,0,0,1,.68.49c.15.21.43.81-.33,1.68s-1.38,1.46-2.06,2.15a11.79,11.79,0,0,1-1.49,1.33A1.09,1.09,0,0,1,58.28,18.34Zm.4-6.39.63.35-1,.38a.36.36,0,0,0-.19.31,1,1,0,0,0,.18.56l.12.17a2.78,2.78,0,0,1,.32.51,2.6,2.6,0,0,1,.08,1.42l-.21,1.43a14.26,14.26,0,0,0,1.08-1c.69-.69,1.39-1.39,2-2.12A.87.87,0,0,0,62,13.5a.47.47,0,0,0-.19-.11c-.14-.05-.32-.11-.59-.23a.89.89,0,0,1-.44-.6,1.38,1.38,0,0,0-1.21-.64c-.25,0-.5,0-.75,0ZM56.3,10.64Z"/><path class="cls-1" d="M58,10.85h0a1.58,1.58,0,0,1-.37-.08,2.39,2.39,0,0,1-.67-.36.72.72,0,0,1-.32-.48A.75.75,0,0,1,57,9.2h0a1,1,0,0,1,.36-.15.7.7,0,0,1,.67.22l.05.06h.17a.79.79,0,0,1,.82.59.73.73,0,0,1-.35.76,1.11,1.11,0,0,1-.47.15ZM57.48,10h0v0l-.28-.38Z"/><path class="cls-1" d="M69,12.07a8.11,8.11,0,0,1-.05-.86,7.94,7.94,0,0,1,15.87,0,7.38,7.38,0,0,1,0,.82l-1-.11c0-.23,0-.47,0-.71a6.94,6.94,0,0,0-13.87,0c0,.26,0,.51,0,.76Z"/><path class="cls-1" d="M76.93,19.15a7.74,7.74,0,0,1-7.67-5.88l1-.24a6.75,6.75,0,0,0,6.7,5.12A6.94,6.94,0,0,0,83.64,13l1,.26A7.94,7.94,0,0,1,76.93,19.15Z"/><path class="cls-1" d="M77,12.9c-3.47,0-9.28-.21-9.28-1.62,0-.62.71-.88,1.78-1.1l.2,1-.52.12A36.6,36.6,0,0,0,77,11.9a35.43,35.43,0,0,0,7.89-.64l-.68-.15.18-1c1,.18,1.9.44,1.9,1.15C86.33,12.69,80.51,12.9,77,12.9Z"/><path class="cls-1" d="M77,14.29c-3.9,0-11.28-.62-11.28-3,0-1,1.33-1.79,4-2.33l.21,1c-2.58.53-3.16,1.17-3.16,1.35,0,.67,3.63,2,10.28,2s10.28-1.3,10.28-2c0-.24-.82-.89-3.34-1.39l.19-1c2.76.54,4.15,1.34,4.15,2.37C88.28,13.67,80.9,14.29,77,14.29Z"/><path class="cls-1" d="M66.62,36a8.08,8.08,0,1,1,8.08-8.07A8.08,8.08,0,0,1,66.62,36Zm0-15.15a7.08,7.08,0,1,0,7.08,7.08A7.08,7.08,0,0,0,66.62,20.84Z"/><path class="cls-1" d="M66.58,36a8.08,8.08,0,1,1,5-14.4h0l.24.2h0l.6.51,0,0A8.08,8.08,0,0,1,66.58,36ZM62.63,22.05a7.06,7.06,0,1,0,8.79.7,2.73,2.73,0,0,1-1.13.2,3.12,3.12,0,0,1-.61-.11,9.26,9.26,0,0,0-3.37-.31l-.62.12a4.16,4.16,0,0,1-2,.11,1.87,1.87,0,0,1-.8-.39A3,3,0,0,1,62.63,22.05Zm4.49-.57a12.68,12.68,0,0,1,2.76.38,3,3,0,0,0,.47.09h0a7.3,7.3,0,0,0-6.87-.41l.07.07a.94.94,0,0,0,.39.18,3.61,3.61,0,0,0,1.51-.11c.23-.05.46-.1.68-.13A6.2,6.2,0,0,1,67.12,21.48Z"/><path class="cls-1" d="M68.49,24.67a5.19,5.19,0,0,1-1-.09,7.36,7.36,0,0,1-1.12-.38,5.77,5.77,0,0,0-.79-.29,7.22,7.22,0,0,0-2.15-.14c-.36,0-.72,0-1.07,0a3.37,3.37,0,0,1-1-.16,2.76,2.76,0,0,1-.67-.39l-.43-.33.37-.4a8.07,8.07,0,0,1,12.46.57l.35.47-.52.27a9.35,9.35,0,0,1-3.81.84Zm-4.32-1.92a6.25,6.25,0,0,1,1.65.19c.31.09.6.21.9.33a6.73,6.73,0,0,0,1,.33,5.54,5.54,0,0,0,1.35.06,9.76,9.76,0,0,0,2.82-.48,7,7,0,0,0-5.26-2.34,7.1,7.1,0,0,0-4.8,1.88,2.69,2.69,0,0,0,.57.07h0c.34,0,.68,0,1,0Z"/><path class="cls-1" d="M66.58,36a8.07,8.07,0,0,1-6-13.48l.3-.34.37.28a1.49,1.49,0,0,0,.41.24,2.15,2.15,0,0,0,.68.1c.34,0,.68,0,1,0a8.53,8.53,0,0,1,2.46.17c.31.09.6.21.9.33a6.73,6.73,0,0,0,1,.33,5.54,5.54,0,0,0,1.35.06,8.39,8.39,0,0,0,3.4-.73l.37-.19.26.34A8.08,8.08,0,0,1,66.58,36ZM61.05,23.5A7.07,7.07,0,1,0,72.48,24a10.32,10.32,0,0,1-3.41.65,6.35,6.35,0,0,1-1.61-.08,7.36,7.36,0,0,1-1.12-.38,5.77,5.77,0,0,0-.79-.29,7.22,7.22,0,0,0-2.15-.14l-1.07,0a3.37,3.37,0,0,1-1-.16Z"/><path class="cls-1" d="M69.57,27A8.63,8.63,0,0,1,67,26.43a8.64,8.64,0,0,0-2.16-.5,8.79,8.79,0,0,0-1.8.18c-.32.06-.63.11-1,.15h0a4.29,4.29,0,0,1-2.86-.48l-.33-.21.13-.38A8.07,8.07,0,0,1,74.09,25l.14.36-.31.23a1.83,1.83,0,0,1-.3.18,10.91,10.91,0,0,1-1.36.61,8.39,8.39,0,0,1-2.47.65Zm-5-2.05h.25a9.27,9.27,0,0,1,2.42.55,7,7,0,0,0,2.49.5,7.28,7.28,0,0,0,2.14-.59,10.09,10.09,0,0,0,1.1-.46,7,7,0,0,0-6.41-4.09,7.11,7.11,0,0,0-6.5,4.28,3.81,3.81,0,0,0,1.84.15h0l.9-.14A10.2,10.2,0,0,1,64.59,24.93Z"/><path class="cls-1" d="M66.58,36a8.08,8.08,0,0,1-8.07-8.07A8.16,8.16,0,0,1,59,25.19l.21-.59.53.34a3.37,3.37,0,0,0,2.2.33l.9-.14a9.55,9.55,0,0,1,2-.2,9.27,9.27,0,0,1,2.42.55,7,7,0,0,0,2.49.5,7.28,7.28,0,0,0,2.14-.59,10.22,10.22,0,0,0,1.25-.54l.19-.12.52-.38.24.6a8.08,8.08,0,0,1-7.51,11Zm-6.83-9.92a7.17,7.17,0,0,0-.24,1.85,7.07,7.07,0,1,0,13.84-2.05c-.36.17-.73.32-1.09.46a8.39,8.39,0,0,1-2.47.65A7.84,7.84,0,0,1,67,26.43a8.64,8.64,0,0,0-2.16-.5,8.59,8.59,0,0,0-1.8.18c-.32.06-.63.11-1,.15A4.93,4.93,0,0,1,59.75,26.07Z"/><path class="cls-1" d="M66.54,36a8.08,8.08,0,0,1-8.07-8.07,6.85,6.85,0,0,1,.05-.91l.08-.7,1.28.62a2.23,2.23,0,0,0,2.46,0c.23-.09.46-.18.69-.25a5.16,5.16,0,0,1,3.38.1l.62.28c.22.1.43.2.66.28a6.23,6.23,0,0,0,3.78-.23h0a9.35,9.35,0,0,0,2.25-1l.63-.4.13.73a7.9,7.9,0,0,1,.13,1.45A8.08,8.08,0,0,1,66.54,36Zm-7.07-8.15v.08a7.07,7.07,0,1,0,14.14,0c0-.19,0-.38,0-.56a12.82,12.82,0,0,1-1.82.71,7.1,7.1,0,0,1-4.42.22,6.88,6.88,0,0,1-.74-.32c-.19-.08-.37-.17-.56-.24a4.1,4.1,0,0,0-2.72-.09l-.62.23a4,4,0,0,1-2,.41A3.59,3.59,0,0,1,59.47,27.84Z"/><path class="cls-1" d="M69,28.56a4.87,4.87,0,0,1-1.67-.27,6.88,6.88,0,0,1-.74-.32c-.19-.08-.37-.17-.56-.24a4.1,4.1,0,0,0-2.72-.09l-.62.23a4,4,0,0,1-2,.41,3.76,3.76,0,0,1-1.31-.45l-1-.47,0-.35a8.07,8.07,0,0,1,16-.54l.06.33-.29.18a9.75,9.75,0,0,1-2.48,1.09A9.19,9.19,0,0,1,69,28.56Zm-4.45-2.11a5.08,5.08,0,0,1,1.84.34l.62.28c.22.1.43.2.66.28a6.23,6.23,0,0,0,3.78-.23,10.55,10.55,0,0,0,2-.81,7.07,7.07,0,0,0-13.87.47l.32.15a3.24,3.24,0,0,0,1,.36h0a3.23,3.23,0,0,0,1.48-.35c.23-.09.46-.18.69-.25A5.05,5.05,0,0,1,64.57,26.45Z"/><path class="cls-1" d="M66.5,36a8.05,8.05,0,0,1-8.06-7.74l0-.4.39-.1a4.54,4.54,0,0,1,2.89.37l.63.27a6.47,6.47,0,0,0,2.11.67,6.56,6.56,0,0,0,2.12-.36l.46-.12a17.47,17.47,0,0,1,4.4-.58h.52a12.18,12.18,0,0,0,1.36,0h0c.22,0,.44-.06.65-.11l.65-.14,0,.66A8.08,8.08,0,0,1,66.5,36Zm-7-7.34a7.07,7.07,0,0,0,14,.31h-.09a10.72,10.72,0,0,1-1.49,0h-.51a16.06,16.06,0,0,0-4.14.54l-.44.13a7.49,7.49,0,0,1-2.46.38,7.28,7.28,0,0,1-2.44-.74l-.61-.26A4.3,4.3,0,0,0,59.47,28.65Z"/><path class="cls-1" d="M64.65,30.06h-.28a7.28,7.28,0,0,1-2.44-.74l-.61-.26h0a3.6,3.6,0,0,0-2.26-.33l-.6.15,0-.62c0-.11,0-.22,0-.33a8.07,8.07,0,1,1,16.14,0c0,.15,0,.31,0,.46l0,.38-.37.09c-.25,0-.51.09-.76.12a10.72,10.72,0,0,1-1.49,0h-.51a16.06,16.06,0,0,0-4.14.54l-.44.13A8.38,8.38,0,0,1,64.65,30.06Zm-3-1.94.63.27a6.47,6.47,0,0,0,2.11.67,6.56,6.56,0,0,0,2.12-.36l.46-.12a17.47,17.47,0,0,1,4.4-.58h.52a12.18,12.18,0,0,0,1.36,0l.27,0v0a7.07,7.07,0,0,0-14.14-.27,5.22,5.22,0,0,1,2.27.47Z"/><path class="cls-1" d="M66.5,36a8.12,8.12,0,0,1-7.88-6.32l-.22-1,.91.4a13.87,13.87,0,0,0,2.63.93,18,18,0,0,0,2.7.3c.65,0,1.32.07,2,.16q.54.07,1.08.18a13.38,13.38,0,0,0,2.11.24h0a5.56,5.56,0,0,0,2.56-.65c.24-.13.48-.27.71-.42l.44-.27,1.08-.64-.34,1.2A8.12,8.12,0,0,1,66.5,36Zm-6.61-5.56a7.07,7.07,0,0,0,12.88.75,6.6,6.6,0,0,1-3,.73h0a13.5,13.5,0,0,1-2.3-.26l-1-.17c-.62-.08-1.28-.12-1.91-.16A17.49,17.49,0,0,1,61.73,31,11.63,11.63,0,0,1,59.89,30.43Z"/><path class="cls-1" d="M69.77,31.91a12.81,12.81,0,0,1-2.25-.26l-1-.17c-.62-.08-1.28-.12-1.91-.16A17.49,17.49,0,0,1,61.73,31a15,15,0,0,1-2.83-1l-.23-.1-.05-.24a8.07,8.07,0,1,1,15.95-1.75,7.92,7.92,0,0,1-.31,2.21l-.06.2-.17.1-.42.26c-.25.16-.51.31-.77.45a6.48,6.48,0,0,1-3,.77ZM59.54,29.2a12.83,12.83,0,0,0,2.4.83,18,18,0,0,0,2.7.3c.65,0,1.32.07,2,.16q.54.07,1.08.18a13.38,13.38,0,0,0,2.11.24,5.56,5.56,0,0,0,2.56-.65c.24-.13.48-.27.71-.42l.27-.17a6.88,6.88,0,0,0,.22-1.75,7.08,7.08,0,1,0-14.15,0A6.93,6.93,0,0,0,59.54,29.2Z"/><path class="cls-1" d="M70.17,34a5.61,5.61,0,0,1-1.79-.27l-.51-.19c-.19-.07-.37-.15-.56-.2a6.23,6.23,0,0,0-2.21-.09c-.36,0-.72,0-1.08,0h0A17.36,17.36,0,0,1,61.39,33a6.82,6.82,0,0,1-1.29-.29L60,32.63l-.09-.13a8,8,0,0,1-1.44-4.58A8.08,8.08,0,1,1,72.2,33.63l-.11.11-.5.09A9.17,9.17,0,0,1,70.17,34Zm-4-1.81a5.07,5.07,0,0,1,1.43.19,5.61,5.61,0,0,1,.65.23l.45.17a5.81,5.81,0,0,0,2.74.11l.17,0a7.07,7.07,0,1,0-12.18-4.89,7.14,7.14,0,0,0,1.16,3.88,7.94,7.94,0,0,0,1,.2,15,15,0,0,0,2.46.25h0c.34,0,.68,0,1,0S65.78,32.14,66.16,32.14Z"/><path class="cls-1" d="M66.5,36a8.06,8.06,0,0,1-6.64-3.49L59,31.23l1.46.52a6.75,6.75,0,0,0,1.12.25,15,15,0,0,0,2.46.25c.34,0,.68,0,1,0a7.21,7.21,0,0,1,2.57.13,5.61,5.61,0,0,1,.65.23l.45.17a5.81,5.81,0,0,0,2.74.11l1.83-.34L72.2,33.63A8,8,0,0,1,66.5,36Zm-4.9-3a7.09,7.09,0,0,0,8.6.93,5.48,5.48,0,0,1-1.82-.27l-.51-.19c-.19-.07-.37-.15-.56-.2a6.23,6.23,0,0,0-2.21-.09c-.36,0-.72,0-1.08,0A15.76,15.76,0,0,1,61.6,33Z"/><path class="cls-1" d="M64.81,29.24h-.25c-1-.08-1.68-.57-1.63-1.19a1,1,0,0,1,.71-.8,2.71,2.71,0,0,1,1.09-.12c1,.08,1.68.57,1.63,1.19a1,1,0,0,1-.71.8A2.69,2.69,0,0,1,64.81,29.24Zm-.65-1.1a1.78,1.78,0,0,0,.48.09,1.51,1.51,0,0,0,.49,0,1.78,1.78,0,0,0-.48-.09A1.51,1.51,0,0,0,64.16,28.14Z"/><path class="cls-1" d="M69.27,30.93a2.93,2.93,0,0,1-1.68-.37.7.7,0,0,1-.26-.47c0-.41.27-.73.9-1a7,7,0,0,1,1.57-.32c.77-.07,2.58-.13,2.66.81q.06.61-.9,1A6.48,6.48,0,0,1,70,30.9C69.84,30.91,69.58,30.93,69.27,30.93Zm-.19-1a6,6,0,0,0,.82,0,5.38,5.38,0,0,0,.81-.12,6,6,0,0,0-.82,0A7.06,7.06,0,0,0,69.08,29.93Z"/><path class="cls-1" d="M80.71,23.79l-.2-1,.38-.07v-.06h.71v1A4.9,4.9,0,0,0,80.71,23.79Z"/><path class="cls-1" d="M76.62,29.93h-1v-1a10.23,10.23,0,0,1,.1-1.28l1,.15a8,8,0,0,0-.09,1.13Zm.77-4-.84-.54a5.38,5.38,0,0,1,1.73-1.69l.53.85A4.26,4.26,0,0,0,77.39,25.91Z"/><path class="cls-1" d="M76.5,32.83l-1-.18a7.34,7.34,0,0,0,.1-.91h1v.71h-.06C76.54,32.57,76.53,32.69,76.5,32.83Z"/><path class="cls-1" d="M68.49,38.47H66.42v-1h2.07Zm-4.14,0H62.29v-1h2.06Zm6.22,0,0-1a5.63,5.63,0,0,0,1.84-.37l.37.93A6.31,6.31,0,0,1,70.57,38.46Zm-10.48-.41a7.72,7.72,0,0,1-2-1l.6-.8a6.8,6.8,0,0,0,1.69.9Zm14.54-1.28-.72-.69a5.45,5.45,0,0,0,1-1.58l.91.42A6.45,6.45,0,0,1,74.63,36.77Zm-18-1.38a6.06,6.06,0,0,1-.85-2.06l1-.21a5,5,0,0,0,.71,1.73Zm0-4.22h-1V29.1h1Z"/><path class="cls-1" d="M56.59,27h-1V26a5.37,5.37,0,0,0-.1-.9l1-.18A6.76,6.76,0,0,1,56.59,26Z"/><path class="cls-1" d="M84.45,23.68H83.09v-1h1.35c.2,0,.4,0,.59,0l.08,1Q84.8,23.68,84.45,23.68Zm-29.53-.31A4.64,4.64,0,0,0,53.84,22l.66-.75a5.6,5.6,0,0,1,1.31,1.71Zm32.27-.22-.41-.92a4.16,4.16,0,0,0,1.43-1l.74.67A5.29,5.29,0,0,1,87.19,23.15Zm-34.9-2a6.24,6.24,0,0,0-1.8-.27v-1a7,7,0,0,1,2.1.32Zm-3.89-.53a5.56,5.56,0,0,1-1.92-1l.63-.78a4.59,4.59,0,0,0,1.57.81Zm41.68-.53-.93-.37a6.55,6.55,0,0,0,.43-1.79l1,.1A7.91,7.91,0,0,1,90.08,20.05Zm-45-2.14a6.79,6.79,0,0,1-.71-2l1-.2A6,6,0,0,0,46,17.44Zm45.5-2h-1V14h1ZM45.25,13.83h-1v-2h1ZM90.61,12h-1V10h1ZM45.25,9.87h-1v-2h1ZM90.61,8h-1v-2l1,0ZM45.26,6l-1-.08a7.51,7.51,0,0,1,.45-2.07l.93.35A7.42,7.42,0,0,0,45.26,6Zm44.07-1.7a4.52,4.52,0,0,0-.87-1.53l.75-.66a5.27,5.27,0,0,1,1.06,1.88ZM46.54,2.58l-.76-.64A5.31,5.31,0,0,1,47.5.61l.43.9A4.39,4.39,0,0,0,46.54,2.58ZM87,1.65a6.52,6.52,0,0,0-1.75-.56l.17-1a7.59,7.59,0,0,1,2,.65ZM49.67,1l-.11-1c.27,0,.56,0,.86,0H51.6V1H50.42A6.06,6.06,0,0,0,49.67,1ZM83.39,1h-2V0h2Zm-4,0h-2V0h2Zm-4,0h-2V0h2Zm-4,0h-2V0h2Zm-4,0h-2V0h2Zm-4,0h-2V0h2Zm-4,0h-2V0h2Zm-4,0h-2V0h2Z"/><path class="cls-1" d="M12.71,60.65a8.14,8.14,0,1,1,8.13-8.13A8.15,8.15,0,0,1,12.71,60.65Zm0-15.27a7.14,7.14,0,1,0,7.13,7.14A7.14,7.14,0,0,0,12.71,45.38Z"/><path class="cls-1" d="M19.66,49.86c-.17,0-4.28,0-8.18-4.61l.76-.65c3.61,4.21,7.39,4.26,7.43,4.26Z"/><path class="cls-1" d="M19.85,54.3a7.68,7.68,0,0,1-2.53-.53l.31-1,.05,0a5.89,5.89,0,0,0,2.5.44l.12,1Z"/><path class="cls-1" d="M7.53,50.85c-1.35-1.11-1.95-2-1.78-2.52l1,.29a9.38,9.38,0,0,0,1.46,1.45Z"/><path class="cls-1" d="M17.63,56.43A29.26,29.26,0,0,1,11.78,54l.49-.87a27.81,27.81,0,0,0,5.61,2.35Z"/><path class="cls-1" d="M11.19,58.36c-.14,0-3.28-1-6.51-5.14l.79-.62c3,3.89,6,4.79,6,4.8Z"/><path class="cls-1" d="M10.91,50.67a17.19,17.19,0,0,1-2.13-2L9.52,48a16.67,16.67,0,0,0,2,1.85Z"/><path class="cls-1" d="M14.87,52.89a9.43,9.43,0,0,1-1.62-.71l.47-.88a8.53,8.53,0,0,0,1.42.63Z"/><path class="cls-1" d="M12.87,52.45a2.29,2.29,0,0,1-1.2-.37,2.13,2.13,0,0,1-1-1.25,1.1,1.1,0,0,1,.13-.86,1.62,1.62,0,0,1,2.26-.14,2.32,2.32,0,0,1,.85.92,1.22,1.22,0,0,1,0,1.19A1.21,1.21,0,0,1,12.87,52.45Zm-1-2a.29.29,0,0,0-.21.06.31.31,0,0,0,0,.1,1.2,1.2,0,0,0,.53.62c.45.29.83.24.88.17a.33.33,0,0,0-.05-.22,1.28,1.28,0,0,0-.48-.51A1.33,1.33,0,0,0,11.89,50.45Z"/><path class="cls-1" d="M18.85,57.54A2.32,2.32,0,0,1,17.72,57a1.13,1.13,0,0,1,.33-2,2.32,2.32,0,0,1,1.24-.12,2.46,2.46,0,0,1,.71.23l-.45.89a1.38,1.38,0,0,0-.42-.13,1.45,1.45,0,0,0-.7.05.31.31,0,0,0-.18.14.36.36,0,0,0,.13.18,1.22,1.22,0,0,0,.64.28Z"/><path class="cls-1" d="M12.3,59.37a2,2,0,0,1-.66-.12c-.76-.29-1.19-1-1-1.54a1,1,0,0,1,.78-.61,1.9,1.9,0,0,1,1,.1c.76.29,1.19,1,1,1.54A1.11,1.11,0,0,1,12.3,59.37Zm-.65-1.29a.8.8,0,0,0,.34.23.67.67,0,0,0,.47,0h0c-.06,0-.17-.13-.4-.21A.85.85,0,0,0,11.65,58.08Z"/><path class="cls-1" d="M28.24,44.58a8.39,8.39,0,1,1,8.39-8.39A8.4,8.4,0,0,1,28.24,44.58Zm0-15.78a7.39,7.39,0,1,0,7.39,7.39A7.4,7.4,0,0,0,28.24,28.8Z"/><path class="cls-1" d="M23.08,35.64a24.46,24.46,0,0,1-2.64-.15l-.52-.06.08-.51a8.4,8.4,0,0,1,14.75-4.1l.3.36-.35.32A16.82,16.82,0,0,1,23.08,35.64Zm-2-1.09c6.52.59,10.55-1.76,12.56-3.46a7.4,7.4,0,0,0-12.56,3.46Z"/><path class="cls-1" d="M28.3,44.58a8.39,8.39,0,0,1-8.39-8.39A9,9,0,0,1,20,34.92l.07-.48.48.06c7.28.81,11.57-2,13.47-3.73l.39-.36.34.41A8.39,8.39,0,0,1,28.3,44.58Zm-7.37-9c0,.22,0,.44,0,.65a7.39,7.39,0,1,0,13.38-4.33C32.14,33.67,27.85,36.18,20.93,35.54Z"/><path class="cls-1" d="M23.39,36.63a25.26,25.26,0,0,1-3-.2l-.45-.06v-.45A8.39,8.39,0,0,1,35.32,31.6l.23.34-.3.29A16.62,16.62,0,0,1,23.39,36.63Zm-2.45-1.14c7,.76,11.26-1.85,13.31-3.69a7.4,7.4,0,0,0-13.31,3.69Z"/><path class="cls-1" d="M28.3,44.58a8.39,8.39,0,0,1-8.39-8.39l0-.77.54,0c7.72,1,12.14-2,14.09-3.93l.43-.42.33.51a8.29,8.29,0,0,1,1.37,4.59A8.39,8.39,0,0,1,28.3,44.58Zm-7.39-8.09a7.39,7.39,0,1,0,13.88-3.84C32.58,34.6,28.15,37.25,20.91,36.49Z"/><path class="cls-1" d="M28.3,44.58a8.42,8.42,0,0,1-7.59-4.81l-.4-.84.92.13c8.38,1.15,13-2.47,14.56-4.08l.74-.75.11,1c0,.31,0,.61,0,.92A8.39,8.39,0,0,1,28.3,44.58Zm-6.24-4.42a7.4,7.4,0,0,0,13.63-3.73C33.58,38.23,29.19,40.87,22.06,40.16Z"/><path class="cls-1" d="M24.38,40.28a24.09,24.09,0,0,1-3.29-.23l-.27,0-.11-.24a8.21,8.21,0,0,1-.8-3.58,8.39,8.39,0,0,1,16.73-.92l0,.24-.17.17C35,37.17,31.15,40.28,24.38,40.28ZM21.5,39.09c7.93,1,12.41-2.28,14.12-3.94a7.39,7.39,0,0,0-14.71,1A7.16,7.16,0,0,0,21.5,39.09Z"/><path class="cls-1" d="M25,42.33c-.75,0-1.53,0-2.35-.12l-.18,0-.13-.13a8.39,8.39,0,1,1,14.39-5.87,8.58,8.58,0,0,1-.24,2l0,.16-.12.1A17.08,17.08,0,0,1,25,42.33Zm-2.07-1.1c6.63.62,10.71-1.82,12.62-3.42a7.39,7.39,0,1,0-12.62,3.42Z"/><path class="cls-1" d="M28.3,44.58a8.34,8.34,0,0,1-6-2.52l-1-1,1.37.14c6.89.69,11-1.9,12.93-3.51l1.18-1-.37,1.52A8.38,8.38,0,0,1,28.3,44.58Zm-4.14-2.26a7.41,7.41,0,0,0,10.75-2.81A18,18,0,0,1,24.16,42.32Z"/><path class="cls-1" d="M28.3,44.58A8.35,8.35,0,0,1,23.38,43L22,42l1.73.11a16.7,16.7,0,0,0,11.48-3l1.57-1.18-.81,1.78A8.41,8.41,0,0,1,28.3,44.58Zm-2.56-1.45a7.34,7.34,0,0,0,2.56.45,7.42,7.42,0,0,0,5.52-2.47A17.92,17.92,0,0,1,25.74,43.13Z"/><path class="cls-1" d="M25.21,43.14c-.51,0-1,0-1.57-.06h-.15L23.38,43a8.39,8.39,0,1,1,12.56-3.32l0,.11-.11.08A17.26,17.26,0,0,1,25.21,43.14Zm-1.36-1a16.7,16.7,0,0,0,11.23-3,7.24,7.24,0,0,0,.61-2.94,7.39,7.39,0,1,0-11.84,5.9Z"/><path class="cls-1" d="M21.29,31.43l.78-.86a8.42,8.42,0,0,1,8.81-2.37l1.07.35-1,.56a17.66,17.66,0,0,1-8.53,2.29Zm7-2.63a7.39,7.39,0,0,0-4.49,1.52,16.55,16.55,0,0,0,5.48-1.46A8.22,8.22,0,0,0,28.3,28.8Z"/><path class="cls-1" d="M28.3,44.58a8.39,8.39,0,0,1-6.23-14l.14-.16h.22a16.71,16.71,0,0,0,8-2.15l.2-.12.21.07A8.39,8.39,0,0,1,28.3,44.58ZM22.67,31.4a7.39,7.39,0,1,0,8.11-2.18A17.6,17.6,0,0,1,22.67,31.4Z"/><path class="cls-1" d="M28.3,48.21c-2.32,0-2.93-7.82-2.93-12s.61-12,2.93-12c1,0,1.76,1.38,2.3,4.23l-1,.19c-.54-2.84-1.18-3.42-1.32-3.42-.58,0-1.93,3.73-1.93,11s1.35,11,1.93,11c.14,0,.8-.59,1.34-3.51l1,.19C30.08,46.8,29.32,48.21,28.3,48.21Z"/><path class="cls-1" d="M16.74,65.22h-2v-1h2Zm-4,0h-2v-1h2Zm-4,0h-2v-1h2Zm-4.09-.14a5.85,5.85,0,0,1-2-.82l.55-.83a4.69,4.69,0,0,0,1.67.67Zm14.19,0-.21-1a6.46,6.46,0,0,0,1.73-.64l.5.87A7.14,7.14,0,0,1,18.84,65.05Zm3.67-2.17-.79-.61a4.54,4.54,0,0,0,.77-1.61l1,.25A5.55,5.55,0,0,1,22.51,62.88ZM1.1,62.7a6.55,6.55,0,0,1-.85-2l1-.25a5.88,5.88,0,0,0,.73,1.69Zm22.58-3.89h-1v-2h1ZM1,58.61H0v-2H1Zm22.68-2.39h-1a7.44,7.44,0,0,1,.37-2.12l.95.31A6.43,6.43,0,0,0,23.68,56.22ZM1,54.61H0v-2H1Zm23.84-1.82-.79-.61a5.29,5.29,0,0,1,1.67-1.42l.47.88A4.38,4.38,0,0,0,24.84,52.79Zm3.08-1.68-.14-1a7.4,7.4,0,0,1,1.07-.07h1v1h-1A6.81,6.81,0,0,0,27.92,51.11Zm5.92-.06h-2v-1h2Zm2.1-.19-.23-1a6.28,6.28,0,0,0,1.72-.66l.51.86A6.77,6.77,0,0,1,35.94,50.86ZM0,50.61v-.06a14.69,14.69,0,0,1,.17-2l1,.14A13.92,13.92,0,0,0,1,50.55Zm39.57-2-.8-.6a4.54,4.54,0,0,0,.74-1.62l1,.24A5.44,5.44,0,0,1,39.57,48.64Zm-38-1.84-1-.29a9.92,9.92,0,0,1,.79-1.95l.88.48A8.61,8.61,0,0,0,1.58,46.8Zm39.11-2.24h-1v-2h1Zm-37.3-1-.67-.74a4.88,4.88,0,0,1,1.91-1.09l.28,1A3.81,3.81,0,0,0,3.39,43.59Zm3.46-1.13-.2-1a2.37,2.37,0,0,0,1.41-.79l.78.62A3.32,3.32,0,0,1,6.85,42.46Zm33.84-1.91h-1v-2h1ZM9.5,39.13h-1v-2h1Zm31.19-2.58h-1v-2h1ZM8.28,35.35A2,2,0,0,0,7.2,34.22l.38-.92A2.93,2.93,0,0,1,9.2,35ZM6.17,34a7.44,7.44,0,0,1-2.12-.29l.29-1A6.18,6.18,0,0,0,6.17,33Zm-4-1.33A5.61,5.61,0,0,1,.79,31l.89-.46a4.58,4.58,0,0,0,1.1,1.41Zm38.56-.17h-1v-2h1ZM.12,29A6.13,6.13,0,0,1,0,27.87v-1H1v1a5.37,5.37,0,0,0,.1.9Zm40.57-.41h-1v-.67a6.49,6.49,0,0,0-.17-1.21l1-.22a7.7,7.7,0,0,1,.19,1.43ZM38.86,25a4.54,4.54,0,0,0-1.19-1.34l.6-.8a5.19,5.19,0,0,1,1.45,1.63ZM1,24.86H0v-2H1Zm35.05-2a6.7,6.7,0,0,0-1.53-.17h-.34v-1h.34a7.53,7.53,0,0,1,1.76.2Zm-3.86-.17h-2v-1h2Zm-4.06-.06a7.36,7.36,0,0,1-2.06-.57l.4-.91a6.86,6.86,0,0,0,1.79.49ZM1,20.86H0v-2H1Zm23.27,0A5.19,5.19,0,0,1,23.09,19l.94-.35a4.13,4.13,0,0,0,.95,1.5Zm-1.59-4v-.37A6.55,6.55,0,0,0,22.51,15l1-.24a7.53,7.53,0,0,1,.2,1.76v.32ZM1,16.86H0v-.33a7.68,7.68,0,0,1,.2-1.77l1,.24A6.7,6.7,0,0,0,1,16.53Zm20.77-3.48a4.37,4.37,0,0,0-1.33-1.19l.51-.86a5.59,5.59,0,0,1,1.63,1.46Zm-19.86,0-.8-.59a5.19,5.19,0,0,1,1.63-1.45l.5.86A4.59,4.59,0,0,0,1.91,13.37Zm16.81-1.84a6.49,6.49,0,0,0-1.21-.17h-.67v-1h.67a6.92,6.92,0,0,1,1.44.19ZM5,11.52l-.22-1a6.73,6.73,0,0,1,1.43-.19h.67v1H6.17A7,7,0,0,0,5,11.52Zm9.88-.16h-2v-1h2Zm-4,0h-2v-1h2Z"/><path class="cls-1" d="M13,32.08a8.29,8.29,0,1,1,8.28-8.28A8.3,8.3,0,0,1,13,32.08Zm0-15.57a7.29,7.29,0,1,0,7.28,7.29A7.3,7.3,0,0,0,13,16.51Z"/><path class="cls-1" d="M13.16,32.08A8.28,8.28,0,0,1,8,17.28l0,0,.78-.49h0L9,16.63H9a8.28,8.28,0,1,1,4.15,15.45ZM9.09,17.76a7.22,7.22,0,0,0-3.22,6,7.29,7.29,0,1,0,10.84-6.36s-.05,0-.07,0a7.15,7.15,0,0,1-2.6.21,5.35,5.35,0,0,1-.56-.07,6.07,6.07,0,0,0-1.1-.08,6.52,6.52,0,0,0-1,.18,4.35,4.35,0,0,1-1.94.14Zm3.59-1.23a9.16,9.16,0,0,1,.93.09l.53.07c.24,0,.49,0,.73,0A7.28,7.28,0,0,0,12.68,16.53Z"/><path class="cls-1" d="M13,32.08A8.3,8.3,0,0,1,4.75,23.8a8.19,8.19,0,0,1,1.37-4.56h0l.34-.44h0l.26-.35h0A8.21,8.21,0,0,1,13,15.51a8.29,8.29,0,0,1,0,16.57ZM7,19.73A7.16,7.16,0,0,0,5.75,23.8a7.29,7.29,0,1,0,13-4.46,1.55,1.55,0,0,1-.53.1,22.25,22.25,0,0,1-2.45,0,3.84,3.84,0,0,0-.68,0,3.64,3.64,0,0,0-1.22.45,6.47,6.47,0,0,1-1.11.46,5.82,5.82,0,0,1-1.75.15A10.26,10.26,0,0,1,7,19.73Zm.63-.81a9.65,9.65,0,0,0,3.45.6,5,5,0,0,0,1.45-.11,5.67,5.67,0,0,0,.93-.4A4.93,4.93,0,0,1,15,18.46a5.21,5.21,0,0,1,.79,0c.75,0,1.47,0,2.18,0a7.26,7.26,0,0,0-10.35.46Z"/><path class="cls-1" d="M12,23c-.21,0-.43,0-.65,0a15.59,15.59,0,0,1-2.55-.43,19.52,19.52,0,0,1-3.2-1l-.44-.19.17-.45a8.28,8.28,0,0,1,15.75.8l.21.8-1.61-.36a7.16,7.16,0,0,0-2.71-.26h0a6.4,6.4,0,0,0-1.25.39l-.56.2A9.87,9.87,0,0,1,12,23ZM6.41,20.77A21.87,21.87,0,0,0,9,21.53a14.2,14.2,0,0,0,2.39.4,8.82,8.82,0,0,0,3.42-.44l.53-.19a7.2,7.2,0,0,1,1.43-.43h0a7.7,7.7,0,0,1,3,.25,7.28,7.28,0,0,0-13.4-.35Z"/><path class="cls-1" d="M13,32.08A8.3,8.3,0,0,1,4.75,23.8a8.14,8.14,0,0,1,.54-2.93l.18-.49.48.21a18.85,18.85,0,0,0,3,.94H9a14.2,14.2,0,0,0,2.39.4,8.82,8.82,0,0,0,3.42-.44l.53-.19a7.2,7.2,0,0,1,1.43-.43,8,8,0,0,1,3.1.26l1.11.25.07.3a8,8,0,0,1,.28,2.12A8.3,8.3,0,0,1,13,32.08Zm-7-10.37a7,7,0,0,0-.31,2.09,7.29,7.29,0,0,0,14.57,0,7.64,7.64,0,0,0-.17-1.58l-.51-.11a7.16,7.16,0,0,0-2.71-.26,6.4,6.4,0,0,0-1.25.39l-.56.2a9.84,9.84,0,0,1-3.81.49,15.59,15.59,0,0,1-2.55-.43A20.47,20.47,0,0,1,6.06,21.71Z"/><path class="cls-1" d="M10.3,26.4a8.3,8.3,0,0,1-2.1-.34,32.23,32.23,0,0,1-3.1-1l-.28-.11,0-.31a7,7,0,0,1,0-.8,8.29,8.29,0,1,1,16.57,0c0,.25,0,.49,0,.74l0,.25-.22.13a4.17,4.17,0,0,1-2.39.7,6.43,6.43,0,0,1-1.82-.41,7.78,7.78,0,0,0-1.25-.34,4.29,4.29,0,0,0-2.54.55,4.36,4.36,0,0,0-.41.24,5.43,5.43,0,0,1-1.05.53A3.78,3.78,0,0,1,10.3,26.4ZM5.76,24.2c.89.34,1.8.64,2.71.89a4.74,4.74,0,0,0,2.77.16,4.58,4.58,0,0,0,.88-.45l.44-.26a5.23,5.23,0,0,1,3.15-.66h0a8.22,8.22,0,0,1,1.44.38,5.22,5.22,0,0,0,1.53.36,3.26,3.26,0,0,0,1.62-.43c0-.13,0-.26,0-.39a7.29,7.29,0,1,0-14.57,0C5.75,23.93,5.75,24.07,5.76,24.2Z"/><path class="cls-1" d="M13,32.08A8.24,8.24,0,0,1,4.79,24.6l-.08-.81.76.3a30.14,30.14,0,0,0,3,1h0a4.74,4.74,0,0,0,2.77.16,4.58,4.58,0,0,0,.88-.45l.44-.26a5.23,5.23,0,0,1,3.15-.66,8.22,8.22,0,0,1,1.44.38,5.22,5.22,0,0,0,1.53.36,3.37,3.37,0,0,0,1.84-.55l.85-.52-.09,1A8.23,8.23,0,0,1,13,32.08ZM5.91,25.32a7.29,7.29,0,0,0,14.24,0,3.83,3.83,0,0,1-1.5.26,6.43,6.43,0,0,1-1.82-.41,7.78,7.78,0,0,0-1.25-.34,4.29,4.29,0,0,0-2.54.55,4.36,4.36,0,0,0-.41.24,5.43,5.43,0,0,1-1.05.53,5.58,5.58,0,0,1-3.38-.13C7.43,25.84,6.67,25.6,5.91,25.32Z"/><path class="cls-1" d="M13.65,30a3.54,3.54,0,0,1-.46,0,10.56,10.56,0,0,1-1.71-.34,6,6,0,0,0-2.13-.31,5.87,5.87,0,0,0-1.44.41l-.51.19-.23-.23a8.29,8.29,0,1,1,11.72,0l-.22.22-.29-.09a4.77,4.77,0,0,0-2.09-.11h0l-.78.11A12.6,12.6,0,0,1,13.65,30Zm-4-1.68a8.3,8.3,0,0,1,2.06.35,10.07,10.07,0,0,0,1.54.32,8.76,8.76,0,0,0,2.08-.17l.82-.12h0a6.41,6.41,0,0,1,2.22.07,7.29,7.29,0,1,0-10.73,0,6.76,6.76,0,0,1,1.59-.42A3,3,0,0,1,9.67,28.28Z"/><path class="cls-1" d="M13,32.08a8.26,8.26,0,0,1-5.86-2.42l-.54-.55.94-.35a6.5,6.5,0,0,1,1.68-.46,6.65,6.65,0,0,1,2.48.33,10.07,10.07,0,0,0,1.54.32,8.76,8.76,0,0,0,2.08-.17l.82-.12a5.82,5.82,0,0,1,2.53.16l.76.25-.57.57A8.18,8.18,0,0,1,13,32.08ZM8.49,29.49a7.28,7.28,0,0,0,8.94.11,6.6,6.6,0,0,0-1.14.06l-.78.11a9.37,9.37,0,0,1-2.32.17,10.56,10.56,0,0,1-1.71-.34,6,6,0,0,0-2.13-.31A4.29,4.29,0,0,0,8.49,29.49Z"/><path class="cls-1" d="M5.37,17.24a2,2,0,1,1,2-2A2,2,0,0,1,5.37,17.24Zm0-3.07a1,1,0,1,0,1,1A1,1,0,0,0,5.37,14.17Z"/><path class="cls-1" d="M19.93,90.57a8.39,8.39,0,1,1,8.4-8.39A8.4,8.4,0,0,1,19.93,90.57Zm0-15.78a7.39,7.39,0,1,0,7.4,7.39A7.4,7.4,0,0,0,19.93,74.79Z"/><path class="cls-1" d="M14.48,88.31l-.15-1s.07-.06.13-.28a1.44,1.44,0,0,0,0-.38,1.61,1.61,0,0,1,.22-1,1.68,1.68,0,0,1,1-.59h.05a2.23,2.23,0,0,1-1.26-1.49,2.44,2.44,0,0,1,0-.78l.3-1.54a1.73,1.73,0,0,0,0-.58,1.57,1.57,0,0,0-.58-.66,5,5,0,0,1-.41-.38,2.76,2.76,0,0,1-.8-1.94h1a1.8,1.8,0,0,0,.51,1.24l.34.31a2.22,2.22,0,0,1,.91,1.21,2.16,2.16,0,0,1,0,1L15.5,83a1.26,1.26,0,0,0-.05.45c.05.34.5.61.91.84a1.13,1.13,0,0,1,.66.89v.16l-.09.14A1.65,1.65,0,0,1,16,86a1.06,1.06,0,0,0-.44.2,1,1,0,0,0,0,.42,2.19,2.19,0,0,1-.06.66A1.19,1.19,0,0,1,14.48,88.31Z"/><path class="cls-1" d="M16.74,88.66a.94.94,0,0,1-1-.59l0-.11,0-.12a1.85,1.85,0,0,1,1-1.23,1.13,1.13,0,0,1,1.08,0,1.41,1.41,0,0,1,.82,1v.17l-.11.23a.72.72,0,0,1-.32.24,4.07,4.07,0,0,1-1,.3A4.11,4.11,0,0,1,16.74,88.66Zm.48-1.17a1.53,1.53,0,0,0-.25.16h.08a1.47,1.47,0,0,0,.35-.08.57.57,0,0,0-.2-.07h0Z"/><path class="cls-1" d="M20.5,86.47a3.25,3.25,0,0,1-.36,0L19,86.29a.83.83,0,0,1-.83-.7.85.85,0,0,1,.33-.7,3.11,3.11,0,0,0,.2-.25,1.76,1.76,0,0,1,.52-.54l.1,0,.22-.13a1.65,1.65,0,0,1,1.33.06,1.26,1.26,0,0,1,.56.34,1.16,1.16,0,0,1,.23,1.08,1.28,1.28,0,0,1-.52.89A1.19,1.19,0,0,1,20.5,86.47Zm-1.06-1.14.83.12a.87.87,0,0,0,.34,0h0s.05,0,.08-.24a.55.55,0,0,0,0-.23l-.16-.06c-.14,0-.43-.16-.55-.1l-.25.14a2.11,2.11,0,0,0-.22.26A1,1,0,0,1,19.44,85.33Z"/><path class="cls-1" d="M25.18,84.61a2.48,2.48,0,0,1-.81-.16,3.11,3.11,0,0,0-1.28-.2,4.6,4.6,0,0,0-.5.13,2.13,2.13,0,0,1-1.5.07c-.82-.34-1-1.31-1.12-1.83,0,0,0,0-.13,0a13.73,13.73,0,0,0-1.79.24c-.89.18-1.26-.16-1.41-.47A1.11,1.11,0,0,1,17.13,81a5.23,5.23,0,0,1,1.06-.58l.4-.19a1.94,1.94,0,0,0,.93-.79.64.64,0,0,0-.09-.77,1.54,1.54,0,0,0-.4-.14,2.7,2.7,0,0,1-1.7-1,2.13,2.13,0,0,1-.17-1.87,4.31,4.31,0,0,1,.92-1.42l.74.68A3.28,3.28,0,0,0,18.11,76a1.15,1.15,0,0,0,.06,1,1.69,1.69,0,0,0,1,.58,2.18,2.18,0,0,1,.76.29,1.62,1.62,0,0,1,.44,2.05A3,3,0,0,1,19,81.13l-.44.21a5.25,5.25,0,0,0-.88.48l-.07.06.21,0a13.82,13.82,0,0,1,1.92-.25,1.06,1.06,0,0,1,.95.31,1,1,0,0,1,.22.51c.1.47.22,1,.53,1.11a1.42,1.42,0,0,0,.82-.11,4.74,4.74,0,0,1,.65-.16,3.73,3.73,0,0,1,1.7.24,1.56,1.56,0,0,0,.62.11.65.65,0,0,0,.22-.11,2.38,2.38,0,0,0,.82-1.88l0-.51a5.61,5.61,0,0,1,.45-2.19l.89.45a4.66,4.66,0,0,0-.34,1.8c0,.18,0,.36,0,.54A3.26,3.26,0,0,1,26,84.34a1.58,1.58,0,0,1-.57.25A1.42,1.42,0,0,1,25.18,84.61Z"/><path class="cls-1" d="M20.23,90.54a1.07,1.07,0,0,1-1-.9,1.17,1.17,0,0,1,.14-1c.42-.8,1.4-.71,2.18-.64a4.78,4.78,0,0,0,1,0,.93.93,0,0,1-.62-.9.78.78,0,0,1,.26-.57,1.42,1.42,0,0,1,.82-.39h0a11.19,11.19,0,0,0,3.79-.94l.39.92a12.14,12.14,0,0,1-4.18,1h0c.54.17.84.32.78,1v.13a.56.56,0,0,1-.57.63l-.36.07a4.75,4.75,0,0,1-1.41,0c-.5,0-1.11-.1-1.22.11a.76.76,0,0,0-.09.23.63.63,0,0,1,.06.17Z"/><path class="cls-1" d="M58.38,91.28a8,8,0,1,1,8.05-8A8.05,8.05,0,0,1,58.38,91.28Zm0-15.08a7,7,0,1,0,7.05,7A7.05,7.05,0,0,0,58.38,76.2Z"/><path class="cls-1" d="M58.55,82.54a14.67,14.67,0,0,1-7.34-1.85l-.39-.22.18-.41a8,8,0,0,1,14.94.43l.17.46-.45.18A19.58,19.58,0,0,1,58.55,82.54Zm-6.44-2.49c2,1,6.45,2.6,12.71.32a7,7,0,0,0-12.71-.32Z"/><path class="cls-1" d="M58.38,91.28a8.05,8.05,0,0,1-8-8A7.91,7.91,0,0,1,51,80.06l.22-.51.49.28c1.75,1,6.6,3.08,13.58.37l.48-.19.17.48a8,8,0,0,1-7.56,10.79ZM51.72,81a7,7,0,0,0-.38,2.27,7,7,0,0,0,14.09,0,7,7,0,0,0-.27-1.93C58.62,83.69,53.87,82.08,51.72,81Z"/><path class="cls-1" d="M58.52,83.53a14.4,14.4,0,0,1-7.62-2l-.32-.2.11-.36a8,8,0,0,1,15.53.5l.09.42-.39.16A19.67,19.67,0,0,1,58.52,83.53Zm-6.76-2.69c2,1.13,6.65,3,13.38.39a7,7,0,0,0-6.76-5A7.09,7.09,0,0,0,51.76,80.84Z"/><path class="cls-1" d="M58.38,91.28a8.05,8.05,0,0,1-8-8,7.91,7.91,0,0,1,.35-2.32l.18-.63.56.35c1.79,1.12,6.75,3.4,14.11.43l.55-.22.13.57a8,8,0,0,1-7.84,9.86Zm-6.89-9.45a6.62,6.62,0,0,0-.15,1.41,7,7,0,1,0,14-1C58.55,84.77,53.72,83,51.49,81.83Z"/><path class="cls-1" d="M58.54,87.16A14.36,14.36,0,0,1,50.69,85l-.18-.12,0-.21a8.5,8.5,0,0,1-.13-1.41,8,8,0,0,1,16.09,0,8.14,8.14,0,0,1-.28,2.08l-.06.25-.24.09A19.68,19.68,0,0,1,58.54,87.16Zm-7.12-2.9c1.6,1,6.53,3.39,13.83.56a7,7,0,1,0-13.91-1.58A7.12,7.12,0,0,0,51.42,84.26Z"/><path class="cls-1" d="M58.38,91.28a8,8,0,0,1-7.91-6.63l-.2-1.15,1,.65c1.39.92,6.51,3.67,14.24.58l.93-.37-.26,1A8,8,0,0,1,58.38,91.28ZM51.75,85.6a7,7,0,0,0,13.1.44C58.54,88.23,54,86.72,51.75,85.6Z"/><path class="cls-1" d="M58.53,89.19a14.72,14.72,0,0,1-6.91-1.63l-.13-.06-.07-.12A8,8,0,1,1,64.8,88l-.09.13-.15,0A18.88,18.88,0,0,1,58.53,89.19Zm-6.32-2.45c2,1,6.15,2.39,11.88.53a7,7,0,1,0-11.88-.53Z"/><path class="cls-1" d="M58.32,91.28a8,8,0,0,1-6.9-3.9l-.92-1.53,1.58.83c2,1,6.23,2.51,12.16.54l1.49-.49L64.8,88A8.06,8.06,0,0,1,58.32,91.28Zm-4.83-2.91a7,7,0,0,0,4.83,1.91,7,7,0,0,0,4.46-1.6A16.46,16.46,0,0,1,53.49,88.37Z"/><path class="cls-1" d="M58.53,90a15.19,15.19,0,0,1-5.82-1.12l-.18-.12a8,8,0,1,1,11.32.38l-.09.08-.11,0A18.82,18.82,0,0,1,58.53,90Zm-5.34-2a15.52,15.52,0,0,0,10.07.33A7,7,0,1,0,53.19,88Z"/><path class="cls-1" d="M58.38,91.28a8,8,0,0,1-5.85-2.53l-1.6-1.69,2.16.89a15.45,15.45,0,0,0,10.29.34l2-.58-1.53,1.42A8,8,0,0,1,58.38,91.28Zm-2.73-1.55a7.18,7.18,0,0,0,5.2.11A16.68,16.68,0,0,1,55.65,89.73Z"/><path class="cls-1" d="M58.54,78.34a15.47,15.47,0,0,1-4.75-.72l-.94-.3.8-.58a8,8,0,0,1,4.53-1.54l.87,0a8,8,0,0,1,4.24,1.64l.81.62-1,.26A18.37,18.37,0,0,1,58.54,78.34ZM55.18,77a15.78,15.78,0,0,0,6.54.07A7,7,0,0,0,59,76.22l-.83,0A7,7,0,0,0,55.18,77Z"/><path class="cls-1" d="M77.76,84.89A8,8,0,1,1,84.68,73l-.87.5a7,7,0,1,0,.9,3.43v-.2l1,0v.23A8,8,0,0,1,77.76,84.89Z"/><path class="cls-1" d="M72.58,70.57a1.61,1.61,0,1,1,1.6-1.6A1.6,1.6,0,0,1,72.58,70.57Zm0-2.21a.61.61,0,1,0,.6.61A.6.6,0,0,0,72.58,68.36Z"/><path class="cls-1" d="M84.45,77.44a2.39,2.39,0,1,1,2.38-2.38A2.39,2.39,0,0,1,84.45,77.44Zm0-3.77a1.39,1.39,0,1,0,1.38,1.39A1.38,1.38,0,0,0,84.45,73.67Z"/><path class="cls-1" d="M68.79,82.24A1.29,1.29,0,1,1,70.08,81,1.28,1.28,0,0,1,68.79,82.24Zm0-1.57a.29.29,0,1,0,.29.29A.29.29,0,0,0,68.79,80.67Z"/><path class="cls-1" d="M85.92,83.24c-2.43,0-7.07-2.27-9.7-3.79-3.37-1.94-9.44-6.13-8.33-8,.46-.8,2-.78,4.5.07l-.31,1c-2.17-.73-3.19-.66-3.33-.51-.27.46,2.12,3.3,8,6.67s9.49,4,9.77,3.56c.06-.1-.11-.85-1.92-2.46l.67-.75c1.89,1.69,2.58,2.9,2.12,3.71A1.55,1.55,0,0,1,85.92,83.24Z"/><path class="cls-1" d="M69.63,80.78l-.73-.68a16.22,16.22,0,0,1,1.5-1.4l.64.77A17.15,17.15,0,0,0,69.63,80.78Z"/><path class="cls-1" d="M69.19,83.43a1.53,1.53,0,0,1-1.42-.59,1.52,1.52,0,0,1,.2-1.55l.86.51c-.21.35-.2.51-.19.54.28.46,4-.21,9.89-3.63a44.7,44.7,0,0,0,4.31-2.81l.6.81A48.13,48.13,0,0,1,79,79.58C76.36,81.12,71.64,83.43,69.19,83.43Z"/><path class="cls-1" d="M86.28,74.28l-.72-.7C86.73,72.37,86.63,72,86.62,72s-.82-.33-3.24.49l-.32-.94c2.51-.86,4-.87,4.43,0C87.87,72.11,87.47,73,86.28,74.28Z"/><path class="cls-1" d="M31.12,76.56a9.08,9.08,0,0,1-.05-.91,8.4,8.4,0,0,1,16.79,0,8.11,8.11,0,0,1,0,.86l-1-.1a6.34,6.34,0,0,0,0-.76,7.4,7.4,0,0,0-14.79,0c0,.27,0,.54,0,.8Z"/><path class="cls-1" d="M39.46,84.05a8.17,8.17,0,0,1-8.1-6.23l1-.24a7.19,7.19,0,0,0,7.13,5.47,7.4,7.4,0,0,0,7.16-5.52l1,.25A8.41,8.41,0,0,1,39.46,84.05Z"/><path class="cls-1" d="M39.58,77.41c-3.67,0-9.82-.22-9.82-1.69,0-.67.9-.94,1.87-1.14l.19,1c-.28.06-.49.11-.65.16a37.23,37.23,0,0,0,8.41.69,36.79,36.79,0,0,0,8.49-.71c-.19,0-.45-.12-.82-.19l.17-1c1,.18,2,.46,2,1.19C49.41,77.19,43.25,77.41,39.58,77.41Z"/><path class="cls-1" d="M39.54,78.89c-4.13,0-11.94-.66-11.94-3.13,0-1,1.4-1.86,4.17-2.44l.2,1c-2.75.57-3.37,1.26-3.37,1.46,0,.72,3.86,2.13,10.94,2.13s11-1.41,11-2.13c0-.21-.66-.92-3.58-1.5l.19-1c2.91.57,4.39,1.41,4.39,2.48C51.49,78.23,43.67,78.89,39.54,78.89Z"/><path class="cls-1" d="M63.8,94.11h-2v-1h2Zm-4,0h-2v-1h2Zm-4,0h-2v-1h2Zm-4,0h-1a3.8,3.8,0,0,1-1.11-.19L50,93a2.92,2.92,0,0,0,.81.14h1Zm-25.36,0h-2v-1h2Zm-4,0h-2v-1h2Zm-4,0h-2v-1h2Zm-4,0h-.51A8.1,8.1,0,0,1,12.33,94l.21-1a6.74,6.74,0,0,0,1.38.13h.51Zm14.09,0-.14-1a2.66,2.66,0,0,0,1.49-.69l.72.69A3.66,3.66,0,0,1,28.52,94.08ZM65.93,94l-.28-1A2.18,2.18,0,0,0,67,92.09l.85.52A3.12,3.12,0,0,1,65.93,94Zm-55.6-.84a5.46,5.46,0,0,1-1.52-1.58L9.66,91a4.22,4.22,0,0,0,1.23,1.29Zm37.51-.63a3.48,3.48,0,0,1-.4-1.71,2.63,2.63,0,0,0,0-.41l1-.13a4.63,4.63,0,0,1,0,.54A2.6,2.6,0,0,0,48.71,92ZM31.43,91l-1,0v-.12a3.3,3.3,0,0,1,.62-2l.8.6a2.32,2.32,0,0,0-.42,1.44Zm36.87-.48-1-.09a3,3,0,0,1,1-2.09l.66.76A2,2,0,0,0,68.3,90.47ZM8,89.55A7.79,7.79,0,0,1,7.75,88v-.51h1V88A6.78,6.78,0,0,0,9,89.31ZM46.68,89a2.81,2.81,0,0,0-1.57-.54l0-1a3.83,3.83,0,0,1,2.16.75Zm-13.44-.47-.22-1a3.62,3.62,0,0,1,.75-.09h1.35v1H33.77A2.59,2.59,0,0,0,33.24,88.52Zm37.27-.07-.08-1a.94.94,0,0,1,.19,0h1.85v1Zm14,0h-2v-1h2Zm-4,0h-2v-1h2Zm-4,0h-2v-1h2Zm-33.35,0h-2v-1h2Zm-4,0h-2v-1h2Zm47.47-.29-.27-1A5.44,5.44,0,0,0,88,86.44l.56.83A6.5,6.5,0,0,1,86.59,88.16Zm3.49-2.46-.85-.53a5,5,0,0,0,.63-1.68l1,.17A5.87,5.87,0,0,1,90.08,85.7ZM8.75,85.44h-1v-2h1ZM91,81.58H90v-2h1ZM8.75,81.44h-1V79.18h1ZM91,77.58H90v-2h1Zm-82.21-.4h-1v-.57a7.39,7.39,0,0,1,.15-1.52l1,.2a6.87,6.87,0,0,0-.13,1.32Zm.79-3.56-.83-.55a5.3,5.3,0,0,1,1.56-1.53l.54.84A4.29,4.29,0,0,0,9.54,73.62Zm81.42,0H90v-2h1ZM12.5,71.65l-.25-1a7.23,7.23,0,0,1,1.67-.24h.44v1h-.44A6.2,6.2,0,0,0,12.5,71.65Zm49.61-.21h-.4v-1h.41a3,3,0,0,0,1.28-.35l.49.87a4,4,0,0,1-1.78.47Zm-2.4,0h-2v-1h2Zm-4,0h-2v-1h2Zm-30.45,0h-.9v-1h.9a3.27,3.27,0,0,0,.91-.18l.34.94A4.06,4.06,0,0,1,25.26,71.44Zm-2.9,0h-2v-1h2Zm-4,0h-2v-1h2Zm33.17-.67a2.89,2.89,0,0,1-1.2-2l1-.16a2,2,0,0,0,.8,1.34Zm38.26-1.08A6.05,6.05,0,0,0,89.11,68l.86-.51a6.69,6.69,0,0,1,.79,2Zm-61.52,0-.9-.44a2.66,2.66,0,0,0,.23-1.14,3.69,3.69,0,0,1,0-.68l1,.17a2.78,2.78,0,0,0,0,.51A3.63,3.63,0,0,1,28.27,69.68Zm37.05-.56-1-.26a2.59,2.59,0,0,0,.1-.76,3.75,3.75,0,0,1,.19-1.24l1,.33a2.56,2.56,0,0,0-.14.91A4.06,4.06,0,0,1,65.32,69.12ZM50,67a2,2,0,0,0-1.2-1l.34-.94a3,3,0,0,1,1.76,1.52Zm37.88-.3a4.65,4.65,0,0,0-1.63-.73l.23-1a5.33,5.33,0,0,1,2,.89Zm-58.48-.41-.58-.81a3.92,3.92,0,0,1,2.07-.67H31v1h-.1A2.91,2.91,0,0,0,29.44,66.25ZM66.64,66l-.42-.9a3.93,3.93,0,0,1,1.56-.37h.61v1h-.61A3.21,3.21,0,0,0,66.64,66Zm17.78-.27h-2v-1h2Zm-4,0h-2v-1h2Zm-4,0h-2v-1h2Zm-4,0h-2v-1h2ZM47,65.77H45v-1h2Zm-4,0H41v-1h2Zm-4,0H37v-1h2Zm-4,0H33v-1h2Z"/></svg>