<svg id="Capa_1" data-name="Capa 1" xmlns="http://www.w3.org/2000/svg" viewBox="0 0 87.43 94.53"><defs><style>.cls-1{fill:#fff;}</style></defs><title>Sin título-1</title><path class="cls-1" d="M13.56,94.53A9.54,9.54,0,1,1,23.1,85,9.55,9.55,0,0,1,13.56,94.53Zm0-18.08A8.54,8.54,0,1,0,22.1,85,8.55,8.55,0,0,0,13.56,76.45Z"/><path class="cls-1" d="M15.4,93.61a.76.76,0,0,1-.63-.31,1,1,0,0,1-.12-.75l.37-2.2a2.06,2.06,0,0,0,0-1.08,1.82,1.82,0,0,0-.24-.38c-.06-.09-.12-.17-.17-.26a2.15,2.15,0,0,1-.36-1.37,1.52,1.52,0,0,1,.25-.72,24.3,24.3,0,0,0-2.57-1.24,3.89,3.89,0,0,1-1-.55A3.85,3.85,0,0,1,10,83.64l-.23-.37a8.42,8.42,0,0,0-.78-1,6.41,6.41,0,0,1-1.2-1.68c-.06-.12-.11-.25-.16-.37-.14-.38-.28-.73-.53-.84l.4-.92a2.24,2.24,0,0,1,1.07,1.4,3.05,3.05,0,0,0,.13.32,5.72,5.72,0,0,0,1,1.43,11.34,11.34,0,0,1,.86,1.06l.26.42.23.37a.68.68,0,0,1,0-.14,1.47,1.47,0,0,1,.34-1.31,1.55,1.55,0,0,1,1.37-.3,2.3,2.3,0,0,1,.86.36c.2.12.4.24.5.2s.22-.33.28-.48c.41-1,1-1.53,1.66-1.58.1,0,.2,0,.31,0h.19a.37.37,0,0,0,.21-.17.57.57,0,0,0,0-.49,1.19,1.19,0,0,0-1-.58,4.56,4.56,0,0,0-1.34.15l-.24,0a1.83,1.83,0,0,1-.93,0,1,1,0,0,1-.67-1.12,1.13,1.13,0,0,1,.23-.41,2.05,2.05,0,0,1,1.93-.52c.2,0,.4.08.6.13a3.66,3.66,0,0,0,.87.16c.32,0,.69-.15.75-.4l1,.24a1.52,1.52,0,0,1-1.06,1,1.84,1.84,0,0,1,.79.87,1.53,1.53,0,0,1-.1,1.38,1.31,1.31,0,0,1-1,.66,2.28,2.28,0,0,1-.37,0,1,1,0,0,0-.17,0c-.35,0-.63.53-.8,1a1.63,1.63,0,0,1-.84,1A1.51,1.51,0,0,1,13.13,83a1.64,1.64,0,0,0-.49-.23c-.34,0-.5,0-.54,0s-.07.17,0,.47a.39.39,0,0,0,.18.3.61.61,0,0,0,.51,0,.66.66,0,0,1,.56,0,.69.69,0,0,1,.41.58c.09.5.69.82,1.21.91a5.94,5.94,0,0,0,1.2,0,8.18,8.18,0,0,1,1,0,2.62,2.62,0,0,1,2.29,1.3,1.22,1.22,0,0,1,.09.27.14.14,0,0,1,0,.07l.52.21a1.34,1.34,0,0,1,.75.56c.34.52.19,1.19-.43,1.86-.8.87-1.66,1.7-2.49,2.5a15.23,15.23,0,0,1-1.77,1.52A1.27,1.27,0,0,1,15.4,93.61Zm.29-7.54.84.5-1,.36a.52.52,0,0,0-.29.44,1.18,1.18,0,0,0,.22.73c0,.07.09.14.14.21a2.79,2.79,0,0,1,.35.59A2.91,2.91,0,0,1,16,90.52l-.32,1.91a16.11,16.11,0,0,0,1.49-1.3c.83-.8,1.68-1.62,2.46-2.46.3-.34.36-.57.33-.63s-.07-.1-.28-.18-.36-.14-.67-.29a1,1,0,0,1-.47-.65l0-.12c-.3-.61-1.19-.72-1.46-.74s-.59,0-.89,0ZM12.8,84.59h0Zm1.51-6.48a.87.87,0,0,0-.67.23,2.76,2.76,0,0,1,.43-.1l.23,0,.28-.06Z"/><path class="cls-1" d="M19.1,79.79a1.09,1.09,0,0,1-.63-.18,1.72,1.72,0,0,1-.33-.34,1.73,1.73,0,0,0-.15-.19,2,2,0,0,1-.25-.32,1.41,1.41,0,0,1,.42-1.85l.54.84a.4.4,0,0,0-.11.49,2.09,2.09,0,0,0,.14.17l.15.17.07.1a1,1,0,0,0,.09.1.7.7,0,0,0,.33,0l1.06-.23.31.51-.16.5-.26.12,0-.12v0l-.71.15A2.71,2.71,0,0,1,19.1,79.79ZM20,78.7l.15.42Z"/><path class="cls-1" d="M15.23,84.75h-.09a1.7,1.7,0,0,1-.4-.09,2.74,2.74,0,0,1-.77-.43.78.78,0,0,1-.33-.52.64.64,0,0,1,.23-.58l.22-.18h0a1.38,1.38,0,0,1,.4-.16.76.76,0,0,1,.7.25l.08.11h.25a.83.83,0,0,1,.87.64.8.8,0,0,1-.4.8,1.34,1.34,0,0,1-.52.15Zm-.88-1.45-.23.67.16-.48.23.41,0,0a.82.82,0,0,1-.12-.22.34.34,0,0,0,.18.13s0,0,0-.07Z"/><path class="cls-1" d="M55.78,91.93a9.54,9.54,0,1,1,9.54-9.54A9.55,9.55,0,0,1,55.78,91.93Zm0-18.08a8.54,8.54,0,1,0,8.54,8.54A8.55,8.55,0,0,0,55.78,73.85Z"/><path class="cls-1" d="M62,89.33a1.27,1.27,0,0,1-1-1.1,2.41,2.41,0,0,1-.07-.74,1,1,0,0,0-.06-.52,1,1,0,0,0-.54-.25,1.9,1.9,0,0,1-1.07-.63L59.19,86v-.16a1.2,1.2,0,0,1,.72-1c.49-.27,1-.59,1.08-1a2.09,2.09,0,0,0-.05-.54l-.35-1.77a2.7,2.7,0,0,1,0-1.11,2.62,2.62,0,0,1,1-1.34c.14-.12.28-.23.4-.35a2.14,2.14,0,0,0,.61-1.48h1a3.12,3.12,0,0,1-.89,2.17c-.15.15-.31.29-.47.43-.33.27-.62.51-.68.8a1.65,1.65,0,0,0,0,.69l.34,1.77A3,3,0,0,1,62,84a2.58,2.58,0,0,1-1.55,1.73l.21.07a1.77,1.77,0,0,1,1.07.64A1.72,1.72,0,0,1,62,87.51,2.08,2.08,0,0,0,62,88c.1.35.15.36.2.37Z"/><path class="cls-1" d="M59.45,89.74a3.37,3.37,0,0,1-.5,0,5,5,0,0,1-1.17-.34.71.71,0,0,1-.33-.24.7.7,0,0,1-.11-.42,1.57,1.57,0,0,1,.9-1.13,1.17,1.17,0,0,1,1.17,0,2.12,2.12,0,0,1,1.14,1.35l0,.12,0,.11A1,1,0,0,1,59.45,89.74Zm-.92-1.17a2.15,2.15,0,0,0,.54.14l.31,0a1.83,1.83,0,0,0-.45-.34h0A.76.76,0,0,0,58.53,88.57Z"/><path class="cls-1" d="M55.14,87.22a1.27,1.27,0,0,1-.71-.19,1.37,1.37,0,0,1-.57-1,1.33,1.33,0,0,1,.24-1.18,1.59,1.59,0,0,1,.62-.37,1.89,1.89,0,0,1,1.46-.07l.18.1a.28.28,0,0,0,.09,0l.09,0a2,2,0,0,1,.58.6,2.82,2.82,0,0,0,.25.3.9.9,0,0,1,.34.74c0,.19-.14.64-.88.74l-1.3.17A3.89,3.89,0,0,1,55.14,87.22Zm.44-1.89a1.63,1.63,0,0,0-.52.12.9.9,0,0,0-.22.11.51.51,0,0,0,0,.31c0,.26.12.31.13.32a1,1,0,0,0,.43,0l1.09-.15-.18-.22a1.13,1.13,0,0,0-.27-.32l-.21-.12A.57.57,0,0,0,55.58,85.33Z"/><path class="cls-1" d="M49.77,85.1a1.63,1.63,0,0,1-.31,0,1.72,1.72,0,0,1-.63-.27,3.7,3.7,0,0,1-1.42-3c0-.21,0-.41,0-.62a5.37,5.37,0,0,0-.4-2.09l.9-.45a6.32,6.32,0,0,1,.5,2.48c0,.2,0,.39,0,.59a2.81,2.81,0,0,0,1,2.21,1,1,0,0,0,.28.13,1.63,1.63,0,0,0,.74-.13,4.32,4.32,0,0,1,1.93-.26,3.89,3.89,0,0,1,.73.18A1.56,1.56,0,0,0,54,84c.38-.15.53-.76.64-1.31a1.29,1.29,0,0,1,.24-.56,1.18,1.18,0,0,1,1-.33,15.07,15.07,0,0,1,2.2.29,1.11,1.11,0,0,0,.44,0s-.11-.1-.23-.19a5.57,5.57,0,0,0-1-.55l-.49-.24a3.29,3.29,0,0,1-1.55-1.38,1.78,1.78,0,0,1,.48-2.26,2.45,2.45,0,0,1,.78-.3,2.05,2.05,0,0,0,1.32-.72,1.41,1.41,0,0,0,.07-1.2A3.8,3.8,0,0,0,57.11,74l.74-.68a4.86,4.86,0,0,1,1,1.6A2.35,2.35,0,0,1,58.7,77a3,3,0,0,1-1.83,1.12,2.06,2.06,0,0,0-.55.18.82.82,0,0,0-.14,1,2.33,2.33,0,0,0,1.11.94l.46.22a5.91,5.91,0,0,1,1.2.66,1.19,1.19,0,0,1,.54,1.45c-.16.33-.56.69-1.54.5a14.34,14.34,0,0,0-2.06-.27.77.77,0,0,0-.23,0s0,.06,0,.08c-.13.63-.34,1.68-1.25,2a2.35,2.35,0,0,1-1.66-.09,4.2,4.2,0,0,0-.59-.14,3.49,3.49,0,0,0-1.47.22A3.08,3.08,0,0,1,49.77,85.1Z"/><path class="cls-1" d="M55.44,91.88l0-1a.29.29,0,0,0,.07-.14,2.18,2.18,0,0,1,.06-.22s0-.08-.11-.29S54.62,90,54,90.07a5.63,5.63,0,0,1-1.59,0A3,3,0,0,0,52,90c-.41-.06-.6-.27-.58-.65v-.17c-.07-.75.29-.88.94-1.11h0a.59.59,0,0,0-.2-.09,13.68,13.68,0,0,1-4.72-1.15l.39-.92A12.93,12.93,0,0,0,52.18,87s0,0,0,0a1.53,1.53,0,0,1,.89.42.87.87,0,0,1,.28.6,1,1,0,0,1-.74,1l-.17.06.12,0a5,5,0,0,0,1.28,0c.93-.08,2-.17,2.44.7a1.41,1.41,0,0,1-.88,2.11Z"/><path class="cls-1" d="M34.28,21.05a9.55,9.55,0,0,1-9.54-9.54v-.27l1,0v.25a8.53,8.53,0,1,0,1.11-4.22L26,6.8a9.54,9.54,0,1,1,8.3,14.25Z"/><path class="cls-1" d="M40.56,3.68A1.84,1.84,0,1,1,42.4,1.84,1.85,1.85,0,0,1,40.56,3.68Zm0-2.68a.84.84,0,1,0,.84.84A.85.85,0,0,0,40.56,1Z"/><path class="cls-1" d="M26.16,12a2.79,2.79,0,1,1,2.78-2.78A2.79,2.79,0,0,1,26.16,12Zm0-4.57a1.79,1.79,0,1,0,1.78,1.79A1.79,1.79,0,0,0,26.16,7.44Z"/><path class="cls-1" d="M45.16,17.84a1.46,1.46,0,1,1,1.46-1.46A1.45,1.45,0,0,1,45.16,17.84Zm0-1.91a.45.45,0,0,0-.45.45.46.46,0,0,0,.45.46.47.47,0,0,0,.46-.46A.46.46,0,0,0,45.16,15.93Z"/><path class="cls-1" d="M24.39,19.06a1.76,1.76,0,0,1-1.66-.69c-.54-.93.3-2.36,2.55-4.36l.66.75c-2.24,2-2.45,2.92-2.34,3.11.39.68,5-.22,12-4.27S45.69,6,45.3,5.34c-.08-.13-1.06-.45-4.16.58l-.31-1c3-1,4.81-1,5.34-.13,1.3,2.26-6,7.28-10.07,9.62C32.91,16.3,27.29,19.06,24.39,19.06Z"/><path class="cls-1" d="M44.22,16.1a18.59,18.59,0,0,0-1.72-1.6l.64-.77A20.6,20.6,0,0,1,45,15.41Z"/><path class="cls-1" d="M44.66,19.29c-2.92,0-8.64-2.8-11.87-4.67a54.86,54.86,0,0,1-5.34-3.48l.6-.8a54.67,54.67,0,0,0,5.24,3.41c7.11,4.11,11.76,5,12.15,4.36,0-.07,0-.31-.23-.76l.86-.51a1.75,1.75,0,0,1,.24,1.77A1.76,1.76,0,0,1,44.66,19.29Z"/><path class="cls-1" d="M24,8.21c-1.41-1.47-1.89-2.55-1.45-3.3.55-1,2.26-.92,5.24.1L27.49,6c-3-1-3.95-.72-4.06-.54s0,.76,1.31,2.1Z"/><path class="cls-1" d="M77.89,66.54A9.54,9.54,0,1,1,87.43,57,9.55,9.55,0,0,1,77.89,66.54Zm0-18.08A8.54,8.54,0,1,0,86.43,57,8.55,8.55,0,0,0,77.89,48.46Z"/><path class="cls-1" d="M86.13,53.77c-.2,0-5-.07-9.61-5.43l.76-.65c4.29,5,8.81,5.08,8.85,5.08Z"/><path class="cls-1" d="M86.34,59a8.62,8.62,0,0,1-2.94-.62l.29-1,.06,0a7.36,7.36,0,0,0,3,.53l.12,1Z"/><path class="cls-1" d="M71.83,55c-1.57-1.28-2.27-2.25-2.09-2.88l1,.29a8.16,8.16,0,0,0,1.76,1.82Z"/><path class="cls-1" d="M83.74,61.54a33.3,33.3,0,0,1-6.89-2.89l.49-.87A33.84,33.84,0,0,0,84,60.58Z"/><path class="cls-1" d="M76.12,63.82c-.15,0-3.85-1.14-7.65-6l.79-.61c3.6,4.65,7.1,5.69,7.14,5.7Z"/><path class="cls-1" d="M75.83,54.74a19.59,19.59,0,0,1-2.51-2.31l.74-.68A17.64,17.64,0,0,0,76.44,54Z"/><path class="cls-1" d="M80.48,57.35a9.55,9.55,0,0,1-1.9-.83l.47-.88a9.43,9.43,0,0,0,1.7.75Z"/><path class="cls-1" d="M78.09,56.83a2.61,2.61,0,0,1-1.37-.43c-1-.62-1.4-1.66-1-2.36h0a1.84,1.84,0,0,1,2.55-.14c1,.62,1.4,1.66,1,2.36A1.34,1.34,0,0,1,78.09,56.83Zm-1.48-2.26c-.09.15.08.63.65,1s1.07.31,1.16.17-.08-.63-.65-1S76.7,54.43,76.61,54.57Z"/><path class="cls-1" d="M85.19,62.85c-1.15-.19-1.94-1-1.81-1.8a1.34,1.34,0,0,1,.87-1,2.58,2.58,0,0,1,1.42-.13,2.72,2.72,0,0,1,.82.26l-.45.89a2.19,2.19,0,0,0-.53-.17,1.75,1.75,0,0,0-.87.07c-.16.07-.26.15-.27.23s.32.54,1,.65Z"/><path class="cls-1" d="M77.42,65a2,2,0,0,1-.75-.14c-.86-.32-1.34-1.07-1.1-1.7h0a1.11,1.11,0,0,1,.85-.66,2.13,2.13,0,0,1,2,.75,1.08,1.08,0,0,1,.2,1.06A1.19,1.19,0,0,1,77.42,65Zm-.91-1.48A.86.86,0,0,0,77,64a.8.8,0,0,0,.67,0,1.05,1.05,0,0,0-.53-.39A.8.8,0,0,0,76.51,63.54Z"/><path class="cls-1" d="M54.55,44a9.54,9.54,0,1,1,9.54-9.54A9.55,9.55,0,0,1,54.55,44Zm0-18.08a8.54,8.54,0,1,0,8.54,8.54A8.55,8.55,0,0,0,54.55,25.87Z"/><path class="cls-1" d="M48.64,33.71a26.54,26.54,0,0,1-3-.17l-.52-.06.08-.51A9.54,9.54,0,0,1,62,28.3l.3.37L61.9,29A19.24,19.24,0,0,1,48.64,33.71ZM46.27,32.6c7.61.7,12.29-2.06,14.59-4a8.54,8.54,0,0,0-14.59,4Z"/><path class="cls-1" d="M54.62,44a9.55,9.55,0,0,1-9.54-9.54A9.87,9.87,0,0,1,45.19,33l.07-.48.48,0c8.36.94,13.29-2.29,15.49-4.29l.38-.35.34.4A9.54,9.54,0,0,1,54.62,44Zm-8.5-10.36a7.5,7.5,0,0,0,0,.82A8.54,8.54,0,1,0,61.5,29.35C59.05,31.42,54.11,34.34,46.12,33.59Z"/><path class="cls-1" d="M49,34.84a26.69,26.69,0,0,1-3.47-.23l-.46,0,0-.46A9.53,9.53,0,0,1,62.6,29.19l.23.34-.3.29C60.48,31.81,56.17,34.84,49,34.84Zm-2.88-1.17c8.19.9,13.07-2.15,15.41-4.28a8.54,8.54,0,0,0-15.41,4.28Z"/><path class="cls-1" d="M54.62,44a9.55,9.55,0,0,1-9.54-9.54l0-.8h.55c8.87,1.12,14-2.35,16.19-4.52l.43-.42.33.51a9.53,9.53,0,0,1-8,14.76Zm-8.53-9.27a8.54,8.54,0,1,0,16-4.43C59.57,32.48,54.49,35.57,46.09,34.68Z"/><path class="cls-1" d="M54.62,44A9.59,9.59,0,0,1,46,38.48l-.39-.84.91.13c9.63,1.32,14.92-2.85,16.74-4.7l.74-.75.11,1a8.94,8.94,0,0,1,.06,1A9.55,9.55,0,0,1,54.62,44Zm-7.28-5.08a8.54,8.54,0,0,0,15.82-4.34C60.79,36.58,55.7,39.74,47.34,38.87Z"/><path class="cls-1" d="M50.13,39a28,28,0,0,1-3.76-.26l-.26,0L46,38.48A9.54,9.54,0,1,1,64.1,33.37l0,.23-.17.17C62.29,35.47,57.86,39,50.13,39ZM46.78,37.8C56,39,61.13,35.15,63.08,33.24a8.54,8.54,0,1,0-16.3,4.56Z"/><path class="cls-1" d="M50.79,41.37a24.91,24.91,0,0,1-2.67-.14l-.19,0-.12-.13a9.53,9.53,0,1,1,16.07-4.37l0,.15-.12.1A19.44,19.44,0,0,1,50.79,41.37ZM48.4,40.25c7.65.72,12.36-2.1,14.55-3.94a8.64,8.64,0,0,0,.21-1.9,8.54,8.54,0,0,0-17.08,0A8.43,8.43,0,0,0,48.4,40.25Z"/><path class="cls-1" d="M54.62,44a9.46,9.46,0,0,1-6.81-2.87l-1-1,1.37.14c7.92.79,12.71-2.19,14.86-4l1.19-1-.38,1.52A9.51,9.51,0,0,1,54.62,44Zm-5-2.61A8.54,8.54,0,0,0,62.37,38,20.33,20.33,0,0,1,49.63,41.34Z"/><path class="cls-1" d="M54.62,44A9.43,9.43,0,0,1,49,42.13l-1.41-1,1.73.12c6.48.44,10.76-1.65,13.2-3.48l1.57-1.17-.82,1.78A9.56,9.56,0,0,1,54.62,44Zm-3.3-1.66a8.55,8.55,0,0,0,9.93-2.5A20.36,20.36,0,0,1,51.32,42.29Z"/><path class="cls-1" d="M51.08,42.29c-.58,0-1.18,0-1.79-.06h-.15L49,42.13a9.54,9.54,0,1,1,15.13-7.72,9.46,9.46,0,0,1-.86,4l0,.12-.1.07A19.67,19.67,0,0,1,51.08,42.29Zm-1.58-1c6.31.39,10.51-1.61,13-3.41a8.54,8.54,0,1,0-13,3.41Z"/><path class="cls-1" d="M46.76,28.88l.78-.86a9.54,9.54,0,0,1,10-2.69l1.07.35-1,.56a20.12,20.12,0,0,1-9.73,2.61Zm7.86-3a8.58,8.58,0,0,0-5.38,1.91A19.08,19.08,0,0,0,56,26,9,9,0,0,0,54.62,25.87Z"/><path class="cls-1" d="M54.62,44A9.54,9.54,0,0,1,47.54,28l.14-.16h.22a19.24,19.24,0,0,0,9.25-2.47l.19-.12.21.07A9.54,9.54,0,0,1,54.62,44Zm-6.48-15.1a8.54,8.54,0,1,0,9.31-2.5A20.09,20.09,0,0,1,48.14,28.85Z"/><path class="cls-1" d="M54.62,48.11c-2.6,0-3.28-8.92-3.28-13.64S52,20.84,54.62,20.84c1.1,0,2,1.61,2.57,4.79l-1,.19c-.62-3.25-1.37-4-1.59-4-.77,0-2.28,4.46-2.28,12.63s1.51,12.64,2.28,12.64c.22,0,1-.75,1.61-4.08l1,.18C56.61,46.46,55.74,48.11,54.62,48.11Z"/><path class="cls-1" d="M23.18,37l-1-.11c0-.3,0-.61,0-.92A8.54,8.54,0,0,0,5.16,36a8.44,8.44,0,0,0,0,.87l-1,.1a7.88,7.88,0,0,1,0-1,9.54,9.54,0,0,1,19.08,0A8.89,8.89,0,0,1,23.18,37Z"/><path class="cls-1" d="M13.7,45.55a9.53,9.53,0,0,1-9.23-7.13l1-.25a8.55,8.55,0,0,0,8.27,6.38,8.31,8.31,0,0,0,8.24-6.32l1,.25A9.3,9.3,0,0,1,13.7,45.55Z"/><path class="cls-1" d="M13.56,38c-3.36,0-11.18-.18-11.18-1.87,0-.78,1.07-1.08,2.22-1.29l.17,1a6,6,0,0,0-1.15.29c1.09.41,4.67.88,9.94.88s8.73-.46,9.88-.86a8.19,8.19,0,0,0-1-.26l.2-1c1.48.3,2.08.66,2.08,1.23C24.74,37.77,16.92,38,13.56,38Z"/><path class="cls-1" d="M13.61,39.64C8.14,39.64,0,38.7,0,36.13,0,34.94,1.67,34,5,33.36l.19,1c-3,.6-4.15,1.4-4.15,1.79,0,.87,4.33,2.51,12.61,2.51s12.6-1.64,12.6-2.51c0-.32-.81-1.1-3.92-1.74l.21-1c3.13.65,4.71,1.56,4.71,2.72C27.21,38.7,19.08,39.64,13.61,39.64Z"/><path class="cls-1" d="M34.05,68.82a9.81,9.81,0,1,1,9.8-9.8A9.82,9.82,0,0,1,34.05,68.82Zm0-18.61A8.81,8.81,0,1,0,42.85,59,8.82,8.82,0,0,0,34.05,50.21Z"/><path class="cls-1" d="M34.1,68.82a9.8,9.8,0,0,1-6.38-17.24l.23-.2h0A9.8,9.8,0,1,1,34.1,68.82Zm-6-16.28a8.8,8.8,0,1,0,10.79-.88l0,0a3.24,3.24,0,0,1-.4.43,2.18,2.18,0,0,1-.94.46,5.31,5.31,0,0,1-2.35-.14c-.26,0-.51-.11-.77-.15a11.39,11.39,0,0,0-4.14.38,4.59,4.59,0,0,1-.77.13A3.3,3.3,0,0,1,28.14,52.54Zm1-.76a1.67,1.67,0,0,0,.38,0,3.39,3.39,0,0,0,.57-.1,12.44,12.44,0,0,1,4.55-.4l.83.16a4.37,4.37,0,0,0,1.91.14,1.2,1.2,0,0,0,.52-.24,1,1,0,0,0,.19-.21,8.76,8.76,0,0,0-8.95.63Z"/><path class="cls-1" d="M31.77,54.92l-.71,0a11.29,11.29,0,0,1-4.63-1l-.53-.27.35-.48a9.79,9.79,0,0,1,15.13-.68l.37.4-.44.33a3.37,3.37,0,0,1-.78.45,3.79,3.79,0,0,1-1.2.19h0c-.44,0-.87,0-1.31,0a9.09,9.09,0,0,0-2.68.17,10.37,10.37,0,0,0-1,.36A7.5,7.5,0,0,1,33,54.8,5.76,5.76,0,0,1,31.77,54.92Zm-4.32-1.67a11.58,11.58,0,0,0,3.66.65,6.3,6.3,0,0,0,1.68-.07A8.4,8.4,0,0,0,34,53.42a9.39,9.39,0,0,1,1.09-.4,10,10,0,0,1,3-.21c.42,0,.84,0,1.25,0a2.84,2.84,0,0,0,.88-.13h0a8.83,8.83,0,0,0-6.12-2.48A8.72,8.72,0,0,0,27.45,53.25Z"/><path class="cls-1" d="M34.1,68.82a9.81,9.81,0,0,1-7.85-15.68l.26-.33.37.19a10.45,10.45,0,0,0,4.23.9,6.3,6.3,0,0,0,1.68-.07A8.4,8.4,0,0,0,34,53.42a9.39,9.39,0,0,1,1.09-.4,10,10,0,0,1,3-.21c.42,0,.84,0,1.25,0a2.84,2.84,0,0,0,.88-.13,2.18,2.18,0,0,0,.53-.31l.37-.28.3.35A9.8,9.8,0,0,1,34.1,68.82ZM26.82,54.07a8.8,8.8,0,1,0,14.1-.62,2.33,2.33,0,0,1-.39.19,3.79,3.79,0,0,1-1.2.19c-.44,0-.87,0-1.31,0a9.09,9.09,0,0,0-2.68.17,10.37,10.37,0,0,0-1,.36A7.5,7.5,0,0,1,33,54.8a7.11,7.11,0,0,1-1.94.1A12.09,12.09,0,0,1,26.82,54.07Z"/><path class="cls-1" d="M30.43,57.76h-.27a9.56,9.56,0,0,1-3-.79,12.82,12.82,0,0,1-1.67-.73L25.16,56l-.32-.23.15-.36a9.8,9.8,0,0,1,18.34.3l.14.38-.34.21a5.13,5.13,0,0,1-3.43.57h0c-.39,0-.78-.11-1.16-.18a10.3,10.3,0,0,0-2.24-.22,10.25,10.25,0,0,0-2.69.62A10.37,10.37,0,0,1,30.43,57.76ZM26.08,55.4a14.59,14.59,0,0,0,1.46.63,8.83,8.83,0,0,0,2.67.72,8.54,8.54,0,0,0,3.09-.61,11.3,11.3,0,0,1,3-.67,11.16,11.16,0,0,1,2.46.24l1.11.17h0a4.71,4.71,0,0,0,2.42-.23,8.84,8.84,0,0,0-8.14-5.44A8.74,8.74,0,0,0,26.08,55.4Z"/><path class="cls-1" d="M34.1,68.82A9.8,9.8,0,0,1,25,55.41l.23-.6.53.38.24.16a12.55,12.55,0,0,0,1.55.68,8.83,8.83,0,0,0,2.67.72,8.54,8.54,0,0,0,3.09-.61,11.3,11.3,0,0,1,3-.67,11.16,11.16,0,0,1,2.46.24l1.11.17a4.21,4.21,0,0,0,2.77-.42l.53-.34.21.59A9.81,9.81,0,0,1,34.1,68.82ZM25.72,56.34A8.63,8.63,0,0,0,25.3,59,8.8,8.8,0,1,0,42.57,56.6a5.82,5.82,0,0,1-2.87.27c-.39,0-.78-.11-1.16-.18a10.3,10.3,0,0,0-2.24-.22,10.25,10.25,0,0,0-2.69.62,9.84,9.84,0,0,1-3.45.66,9.56,9.56,0,0,1-3-.79C26.7,56.77,26.2,56.58,25.72,56.34Z"/><path class="cls-1" d="M34.16,68.82a9.81,9.81,0,0,1-9.8-9.8,9.6,9.6,0,0,1,.16-1.76l.13-.73.63.4a11.46,11.46,0,0,0,2.79,1.22h0a7.78,7.78,0,0,0,4.72.28c.28-.1.54-.23.81-.35s.5-.24.76-.34a6.18,6.18,0,0,1,4.07-.12c.29.09.57.2.85.31a4,4,0,0,0,1.86.43,4,4,0,0,0,1.24-.45l1.44-.7.08.71A10,10,0,0,1,44,59,9.82,9.82,0,0,1,34.16,68.82ZM25.4,58.15a8.44,8.44,0,0,0,0,.87A8.8,8.8,0,0,0,43,59a2.44,2.44,0,0,0,0-.27l-.13.06a5,5,0,0,1-1.56.55,4.92,4.92,0,0,1-2.35-.5,8.21,8.21,0,0,0-.78-.29,5.12,5.12,0,0,0-3.41.11c-.24.09-.46.2-.69.3s-.6.28-.91.39a8.62,8.62,0,0,1-5.35-.27h0A14.23,14.23,0,0,1,25.4,58.15Z"/><path class="cls-1" d="M31.11,59.7a11.19,11.19,0,0,1-3.34-.6,12.49,12.49,0,0,1-3-1.33l-.28-.18.06-.33a9.8,9.8,0,0,1,19.38.66l0,.35-1.11.54a5.06,5.06,0,0,1-1.56.55h0a4.81,4.81,0,0,1-2.35-.5,8.21,8.21,0,0,0-.78-.29,5.12,5.12,0,0,0-3.41.11c-.24.09-.46.2-.69.3s-.6.28-.91.39A5.84,5.84,0,0,1,31.11,59.7Zm-5.54-2.6a12.13,12.13,0,0,0,2.5,1,7.78,7.78,0,0,0,4.72.28c.28-.1.54-.23.81-.35s.5-.24.76-.34a6.18,6.18,0,0,1,4.07-.12c.29.09.57.2.85.31a4,4,0,0,0,1.86.43,4,4,0,0,0,1.24-.45l.48-.23a8.8,8.8,0,0,0-17.29-.58Z"/><path class="cls-1" d="M34.2,68.82a9.81,9.81,0,0,1-9.78-9.23l0-.66.65.14a6.84,6.84,0,0,0,.81.14h0c.55,0,1.1,0,1.68,0h.66a20.65,20.65,0,0,1,5.36.7l.56.15a7.79,7.79,0,0,0,2.65.44,8,8,0,0,0,2.62-.82l.77-.34a5.54,5.54,0,0,1,3.48-.45L44,59v.41A9.78,9.78,0,0,1,34.2,68.82Zm-8.72-8.65A8.8,8.8,0,0,0,43,59.82a5,5,0,0,0-2.45.48l-.75.32a8.8,8.8,0,0,1-3,.91,8.74,8.74,0,0,1-3-.48l-.55-.15a19.93,19.93,0,0,0-5.1-.66h-.64c-.59,0-1.2,0-1.81,0Z"/><path class="cls-1" d="M36.48,61.54a9.78,9.78,0,0,1-2.65-.49l-.55-.15a19.93,19.93,0,0,0-5.1-.66h-.64c-.59,0-1.2,0-1.81,0a9.28,9.28,0,0,1-.92-.15L24.44,60l0-.38c0-.19,0-.38,0-.57A9.8,9.8,0,1,1,44,59v.4l0,.63-.6-.16a4.54,4.54,0,0,0-2.85.41h0l-.75.32a8.8,8.8,0,0,1-3,.91Zm-8.3-2.3a20.65,20.65,0,0,1,5.36.7l.56.15a7.79,7.79,0,0,0,2.65.44,8,8,0,0,0,2.62-.82l.77-.34A6.32,6.32,0,0,1,43,58.81,8.8,8.8,0,0,0,25.4,59v.13l.44.06c.55,0,1.1,0,1.68,0h.66Z"/><path class="cls-1" d="M34.21,68.82a9.86,9.86,0,0,1-9.43-7.11l-.34-1.21,1.08.64.54.34c.29.18.58.36.88.52a7,7,0,0,0,3.2.81h0a14.12,14.12,0,0,0,2.61-.3c.44-.08.88-.16,1.32-.22.81-.11,1.63-.15,2.42-.2a21.21,21.21,0,0,0,3.34-.36,18.34,18.34,0,0,0,3.25-1.15l.91-.4-.22,1A9.85,9.85,0,0,1,34.21,68.82Zm-8-6.06a8.8,8.8,0,0,0,16.28-.86,15,15,0,0,1-2.48.8,21.93,21.93,0,0,1-3.49.39c-.78,0-1.58.09-2.35.19-.43.06-.85.14-1.27.21a16.22,16.22,0,0,1-2.8.32,7.92,7.92,0,0,1-3.66-.93Z"/><path class="cls-1" d="M30.19,63.81h-.06a7.92,7.92,0,0,1-3.66-.93c-.32-.17-.63-.36-.94-.55L25,62l-.17-.1-.06-.19A9.8,9.8,0,1,1,44,59a9.57,9.57,0,0,1-.24,2.12l-.05.25-.23.1A18,18,0,0,1,40,62.7a21.93,21.93,0,0,1-3.49.39c-.78,0-1.58.09-2.35.19-.43.06-.85.14-1.27.21A15.43,15.43,0,0,1,30.19,63.81Zm-4.5-2.56c.13.07.25.15.37.23.29.18.58.36.88.52a7,7,0,0,0,3.2.81,14.82,14.82,0,0,0,2.61-.3c.44-.08.88-.16,1.32-.22.81-.11,1.63-.15,2.42-.2a21.21,21.21,0,0,0,3.34-.36,17.36,17.36,0,0,0,3-1A9.33,9.33,0,0,0,43,59a8.8,8.8,0,1,0-17.32,2.23Z"/><path class="cls-1" d="M29.69,66.31A12,12,0,0,1,28,66.17l-.58-.11L27.28,66a9.81,9.81,0,1,1,15-1.37l-.09.14-.15,0a9.1,9.1,0,0,1-1.57.36,21.16,21.16,0,0,1-3.21.32c-.44,0-.87,0-1.31-.06a7.89,7.89,0,0,0-2.76.11c-.24.07-.47.17-.7.26l-.62.23A7,7,0,0,1,29.69,66.31Zm-1.81-1.17.25,0A7.26,7.26,0,0,0,31.54,65c.19-.06.38-.14.57-.21a7.47,7.47,0,0,1,.79-.29A8.84,8.84,0,0,1,36,64.39c.42,0,.83.06,1.25.06h0a20.61,20.61,0,0,0,3-.31,8.53,8.53,0,0,0,1.24-.26,8.79,8.79,0,1,0-13.66,1.26Z"/><path class="cls-1" d="M34.21,68.82A9.73,9.73,0,0,1,27.28,66l-1.13-1.13,2,.36A7.26,7.26,0,0,0,31.54,65c.19-.06.38-.14.57-.21a7.47,7.47,0,0,1,.79-.29A8.82,8.82,0,0,1,36,64.39c.42,0,.83.06,1.25.06a20.61,20.61,0,0,0,3-.31,7.81,7.81,0,0,0,1.39-.31l1.46-.52-.88,1.27A9.81,9.81,0,0,1,34.21,68.82ZM29.26,66.3a8.8,8.8,0,0,0,11.29-1.18h-.09a21.16,21.16,0,0,1-3.21.32c-.44,0-.87,0-1.31-.06a7.89,7.89,0,0,0-2.76.11c-.24.07-.47.17-.7.26l-.62.23A7.38,7.38,0,0,1,29.26,66.3Z"/><path class="cls-1" d="M36.27,60.53c-1,0-1.73-.41-1.78-1h0c-.06-.68.74-1.24,1.9-1.34a3.25,3.25,0,0,1,1.28.15c.66.24.79.65.81.87.05.69-.75,1.25-1.9,1.35Zm-.7-1.12a2,2,0,0,0,.93.11,1.91,1.91,0,0,0,.89-.26,1.92,1.92,0,0,0-.92-.11A2,2,0,0,0,35.57,59.41Z"/><path class="cls-1" d="M30.82,62.61c-.37,0-.69,0-.89,0-.72-.07-3-.36-2.94-1.45,0-.43.45-.72,1.21-.85a8.14,8.14,0,0,1,1.94,0c.71.07,3,.36,2.93,1.44C33,62.46,31.77,62.61,30.82,62.61Zm-2.43-1.36a6.53,6.53,0,0,0,1.63.32,6.62,6.62,0,0,0,1.65,0,6.34,6.34,0,0,0-1.62-.32A6.7,6.7,0,0,0,28.39,61.25Z"/><rect class="cls-1" x="18.51" y="22.39" width="10.83" height="2.04" transform="translate(-9.55 23.76) rotate(-44.98)"/><rect class="cls-1" x="42.9" y="18.47" width="2.04" height="10.27" transform="translate(-3.83 37.97) rotate(-45)"/><rect class="cls-1" x="65.26" y="40.32" width="2.04" height="11.29" transform="translate(-13.09 60.33) rotate(-45)"/><rect class="cls-1" x="43.71" y="66.08" width="2.04" height="10.52" transform="translate(-37.34 52.52) rotate(-45)"/><rect class="cls-1" x="38.31" y="44.94" width="10.83" height="2.04" transform="translate(-19.7 47.34) rotate(-47.67)"/><rect class="cls-1" x="17.49" y="70.76" width="11.78" height="2.04" transform="translate(-46.68 43.65) rotate(-50.08)"/></svg>