<svg id="Capa_1" data-name="Capa 1" xmlns="http://www.w3.org/2000/svg" viewBox="0 0 105.47 93.57"><defs><style>.cls-1{fill:#fff;}</style></defs><title>Sin título-1</title><circle class="cls-1" cx="68.71" cy="1.13" r="1.13"/><circle class="cls-1" cx="70.22" cy="7.3" r="1.32"/><circle class="cls-1" cx="67.39" cy="83.45" r="1.32"/><circle class="cls-1" cx="78.19" cy="4.25" r="2.17"/><circle class="cls-1" cx="3.95" cy="80.17" r="1.13"/><circle class="cls-1" cx="61.82" cy="85.42" r="1.13"/><circle class="cls-1" cx="8.65" cy="75.89" r="1.32"/><circle class="cls-1" cx="8.91" cy="17.05" r="1.32"/><circle class="cls-1" cx="2.17" cy="70.34" r="2.17"/><circle class="cls-1" cx="10.62" cy="10.08" r="2.17"/><path class="cls-1" d="M67.61,43.86A17.45,17.45,0,1,0,92,47.58,17.44,17.44,0,0,0,67.61,43.86ZM85.51,68.2a12.77,12.77,0,1,1,2.73-17.85A12.77,12.77,0,0,1,85.51,68.2Z"/><rect class="cls-1" x="87.97" y="67.52" width="4.38" height="14" transform="translate(-26.62 67.9) rotate(-36.33)"/><rect class="cls-1" x="93.42" y="75.74" width="8.59" height="18.1" rx="2.67" transform="translate(-31.24 74.37) rotate(-36.33)"/><path class="cls-1" d="M59.06,62c-2.41,1-5.3,2.29-8.32,3.79-7.72,3.82-7,.61-7,.61s-2.14-1.15,3.28-2.06-1.37-1.46-1.45-2.6,1.76-2.6-1.15-3.29-2.6-1.07-3.51-2S41,55,42.41,54.2a1.79,1.79,0,0,0,.46-3.06,2.54,2.54,0,0,1-.15-3.29c.61-.61,1-3.52-4.06-1.22s-5.39,4.11-5.39,4.11-2,3.49-3.51,4.32S32,57.21,32,57.21s2.26,1.72-.49,2.13a5.23,5.23,0,0,1-4.15-.86s-3.5-1.15-5.6.43S19.87,57,19.87,57s-.26-3-2.44-2.29-3.38,1.43-4.41-.23a1.3,1.3,0,0,0-1-.6,34.39,34.39,0,0,1,6-32.44h0s2.59,1.64,1.79,3.67,2.6,4.78,2.6,4.78,3.9,2.94,4,3,2.34.91,3.79-2.18S38.55,28,38.55,28s13.19-.45,12.69-3.89c0,0-.5-2.14-3.21-.92s-4.17.27-4.17.27-9.17-1.64-16.13,0c0,0-7.3,1.87-2.37-7.95.22-.43.4-.82.55-1.18a34.33,34.33,0,0,1,16.2-5.55,20.47,20.47,0,0,0-4.06,4.32,5.13,5.13,0,0,0,.88,7.2,14.12,14.12,0,0,1,4.67,1.13c3.13,1.18,1.52-.83,8.52-1.32s8.31,6.25,8.31,6.25,2,5.28,5.42,5.53,5.24,4.16,5.24,4.16,1.72,4.33,3.9,2.58,3.38-1.72,3.38-1.72l.38-.1c.13.66.22,1.33.31,2a19.67,19.67,0,0,1,2.89.34A37.38,37.38,0,1,0,66.41,73.63,19.41,19.41,0,0,1,59.06,62Z"/></svg>