<svg id="Capa_1" data-name="Capa 1" xmlns="http://www.w3.org/2000/svg" viewBox="0 0 113.82 30.93"><defs><style>.cls-1{fill:#67c2ee;}.cls-2{fill:#fff;}</style></defs><title>Sin título-1</title><path class="cls-1" d="M28.9,13.3h-.72V16h.74a1,1,0,0,0,.81-.25,1.46,1.46,0,0,0,.23-.95v-.33a1.23,1.23,0,0,0-.24-.89A1.18,1.18,0,0,0,28.9,13.3Z"/><path class="cls-1" d="M49.59,13.3h-.73v2.19h.75a1.23,1.23,0,0,0,.83-.23.9.9,0,0,0,.25-.72V14.2a.83.83,0,0,0-.26-.72A1.54,1.54,0,0,0,49.59,13.3Z"/><path class="cls-1" d="M.5.6V30.49H113.32V.6Zm17.36,19H12.71V11.77h4.92V13.4H14.77v1.5h2.37v1.52H14.77V18h3.09Zm5,0-.79-1.78-.5-1.55-.44,1.55-.78,1.78H18.51l2.08-4-2-3.79h2.3l.78,1.76L22.12,15l.37-1.46.71-1.76h1.89l-1.94,3.8,2.06,4Zm8.41-2.94a3.27,3.27,0,0,1-2.3.73h-.83v2.21H26.13V11.77H29a3.46,3.46,0,0,1,2.29.68,2.59,2.59,0,0,1,.82,2.09A2.66,2.66,0,0,1,31.31,16.64Zm6.75,2.94H33.3V11.77h2.06V18h2.7Zm7.32-2.36a3.68,3.68,0,0,1-.61,1.31,3,3,0,0,1-1.08.89,3.52,3.52,0,0,1-1.59.33,3.65,3.65,0,0,1-1.58-.32,2.85,2.85,0,0,1-1.06-.88,3.46,3.46,0,0,1-.6-1.3,6.83,6.83,0,0,1,0-3.2,3.54,3.54,0,0,1,.61-1.28,2.82,2.82,0,0,1,1.08-.84,3.59,3.59,0,0,1,1.58-.31,3.67,3.67,0,0,1,1.59.31,2.75,2.75,0,0,1,1.06.84,3.28,3.28,0,0,1,.6,1.26,6.21,6.21,0,0,1,.19,1.6A6.3,6.3,0,0,1,45.38,17.22ZM51,19.58l-1.37-2.81h-.78v2.81H46.8V11.77h2.9A5.9,5.9,0,0,1,51,11.9a2.82,2.82,0,0,1,1,.45,2,2,0,0,1,.63.81,3.07,3.07,0,0,1,.21,1.2,2.37,2.37,0,0,1-.42,1.43,2.28,2.28,0,0,1-1.46.78l1,.69,1.19,2.32Zm8.33,0H54.2V11.77h4.92V13.4H56.25v1.5h2.38v1.52H56.25V18h3.09Zm36.76.05-.68-.73L98.49,16H82.71V15H98.49l-3.07-2.85.68-.74,4.4,4.09Z"/><path class="cls-1" d="M43.1,13.52a.76.76,0,0,0-.4-.29,2.15,2.15,0,0,0-.6-.07,1.93,1.93,0,0,0-.57.07.74.74,0,0,0-.4.3,1.76,1.76,0,0,0-.23.64,6.47,6.47,0,0,0-.07,1.09V16a7.43,7.43,0,0,0,.08,1.18,1.84,1.84,0,0,0,.24.71.79.79,0,0,0,.41.34,1.85,1.85,0,0,0,1.14,0,.91.91,0,0,0,.4-.36,2.24,2.24,0,0,0,.23-.73,7.52,7.52,0,0,0,.08-1.18v-.72a5.91,5.91,0,0,0-.08-1.07A1.58,1.58,0,0,0,43.1,13.52Z"/><path class="cls-2" d="M113.82,30.93H0V0H113.82ZM1,29.93H112.82V1H1Z"/></svg>