<svg id="Capa_1" data-name="Capa 1" xmlns="http://www.w3.org/2000/svg" viewBox="0 0 113.82 30.89"><defs><style>.cls-1{fill:#fff;}.cls-2{fill:#67c2ee;}.cls-3{fill:none;stroke:#67c2ee;stroke-miterlimit:10;}</style></defs><title>Sin título-1</title><path class="cls-1" d="M113.82,30.89H0V0H113.82ZM1,29.89H112.82V1H1Z"/><path class="cls-2" d="M12.71,11.67h4.92V13.3H14.77v1.5h2.37v1.53H14.77v1.59h3.09v1.56H12.71Z"/><path class="cls-2" d="M20.59,15.46l-2-3.79h2.3l.78,1.76.43,1.47.37-1.47.71-1.76h1.89l-1.94,3.8,2.06,4H22.9l-.79-1.77-.5-1.55-.44,1.55-.78,1.77H18.51Z"/><path class="cls-2" d="M26.13,11.67H29a3.47,3.47,0,0,1,2.28.68,2.58,2.58,0,0,1,.83,2.09,2.7,2.7,0,0,1-.81,2.11,3.32,3.32,0,0,1-2.3.72h-.83v2.21H26.13Zm2.79,4.19a1.09,1.09,0,0,0,.81-.25,1.48,1.48,0,0,0,.23-.95v-.34a1.25,1.25,0,0,0-.24-.89,1.2,1.2,0,0,0-.82-.22h-.72v2.65Z"/><path class="cls-2" d="M33.3,11.67h2.06v6.25h2.7v1.56H33.3Z"/><path class="cls-2" d="M42.1,19.65a3.65,3.65,0,0,1-1.58-.32,2.94,2.94,0,0,1-1.07-.87,3.73,3.73,0,0,1-.59-1.31,6.79,6.79,0,0,1,0-3.19,3.46,3.46,0,0,1,.61-1.28,2.94,2.94,0,0,1,1.08-.85,4.31,4.31,0,0,1,3.16,0,2.91,2.91,0,0,1,1.07.84,3.32,3.32,0,0,1,.6,1.27,6.19,6.19,0,0,1,.19,1.59,6.79,6.79,0,0,1-.19,1.59,3.86,3.86,0,0,1-.61,1.31,3.13,3.13,0,0,1-1.08.89A3.55,3.55,0,0,1,42.1,19.65Zm0-1.45a1.44,1.44,0,0,0,.58-.1.81.81,0,0,0,.4-.36,2.18,2.18,0,0,0,.23-.72,7.66,7.66,0,0,0,.08-1.19v-.72A6.07,6.07,0,0,0,43.33,14a1.64,1.64,0,0,0-.23-.62.81.81,0,0,0-.4-.29,2.6,2.6,0,0,0-.6-.07,2.34,2.34,0,0,0-.57.07.71.71,0,0,0-.4.3,1.81,1.81,0,0,0-.23.65,6.26,6.26,0,0,0-.07,1.08v.71a7.57,7.57,0,0,0,.08,1.19,1.9,1.9,0,0,0,.24.71.8.8,0,0,0,.41.34A1.6,1.6,0,0,0,42.12,18.2Z"/><path class="cls-2" d="M51.93,17.17l1.19,2.31H51l-1.36-2.81h-.78v2.81H46.8V11.67h2.9a5.87,5.87,0,0,1,1.32.14,2.51,2.51,0,0,1,1,.45,2.08,2.08,0,0,1,.63.8,3.07,3.07,0,0,1,.21,1.2,2.35,2.35,0,0,1-.42,1.43,2.3,2.3,0,0,1-1.46.78Zm-2.32-1.78a1.23,1.23,0,0,0,.83-.22.92.92,0,0,0,.25-.73v-.33a.83.83,0,0,0-.26-.72,1.54,1.54,0,0,0-.84-.18h-.73v2.18Z"/><path class="cls-2" d="M54.2,11.67h4.92V13.3H56.25v1.5h2.37v1.53H56.25v1.59h3.09v1.56H54.2Z"/><line class="cls-3" x1="82.71" y1="15.45" x2="99.41" y2="15.45"/><polygon class="cls-2" points="96.1 19.54 95.42 18.8 99.03 15.45 95.42 12.09 96.1 11.36 100.5 15.45 96.1 19.54"/></svg>