<svg id="Capa_1" data-name="Capa 1" xmlns="http://www.w3.org/2000/svg" viewBox="0 0 113.82 30.89"><defs><style>.cls-1{fill:#67c2ee;}.cls-2{fill:#fff;}</style></defs><title>Botones</title><rect class="cls-1" x="0.5" y="0.5" width="112.82" height="29.89"/><path class="cls-2" d="M113.82,30.89H0V0H113.82ZM1,29.89H112.82V1H1Z"/><path class="cls-2" d="M18.67,18.87h-6v-7.7h5.9V13H14.8v1h2.28v1.77H14.8v1.32h3.87Z"/><path class="cls-2" d="M27,18.87H24.51L24,18a13.08,13.08,0,0,1-.74-1.42A12.26,12.26,0,0,1,22.5,18l-.51.89H19.57L22.09,15l-2.43-3.81h2.47l.43.75a12.9,12.9,0,0,1,.74,1.41c.12-.28.37-.75.74-1.41l.43-.75h2.42l-2.43,3.77Z"/><path class="cls-2" d="M34.39,13.73c0,1.76-1,2.65-3.14,2.65H30.18v2.49h-2.1v-7.7h3.31C33.39,11.17,34.39,12,34.39,13.73Zm-2.12,0c0-.57-.31-.85-.93-.85H30.18v1.73H31.3C32,14.64,32.27,14.35,32.27,13.76Z"/><path class="cls-2" d="M41.12,18.87H35.55v-7.7h2.16V17h3.41Z"/><path class="cls-2" d="M49.12,15a4.15,4.15,0,0,1-1,2.93A3.7,3.7,0,0,1,43,18,4.12,4.12,0,0,1,42,15a4.12,4.12,0,0,1,1-2.95,3.35,3.35,0,0,1,2.57-1,3.3,3.3,0,0,1,2.56,1A4.12,4.12,0,0,1,49.12,15Zm-2.21,0a2.86,2.86,0,0,0-.36-1.58,1.11,1.11,0,0,0-1-.55c-.9,0-1.34.7-1.34,2.11a3,3,0,0,0,.35,1.58,1.14,1.14,0,0,0,1,.55C46.46,17.15,46.91,16.44,46.91,15Z"/><path class="cls-2" d="M57,18.87H54.58l-1.25-2.59h-.86v2.59h-2.1v-7.7h3.44c2,0,3,.84,3,2.51a2.27,2.27,0,0,1-1.38,2.26Zm-2.28-5.13c0-.55-.31-.83-.94-.83H52.47V14.6h1.25C54.37,14.6,54.69,14.31,54.69,13.74Z"/><path class="cls-2" d="M64.21,18.87h-6v-7.7h5.9V13H60.35v1h2.28v1.77H60.35v1.32h3.86Z"/><rect class="cls-2" x="82.71" y="14.95" width="16.7" height="1"/><polygon class="cls-2" points="96.1 19.54 95.42 18.8 99.03 15.45 95.42 12.09 96.1 11.36 100.5 15.45 96.1 19.54"/></svg>